<svg width="448" height="71" viewBox="0 0 448 71" fill="none" xmlns="http://www.w3.org/2000/svg">
<path d="M360.096 4.83203L359.949 65.5444L343.615 67.3759L343.761 6.66354L360.096 4.83203Z" fill="#F9F9FF"/>
<path d="M343.614 67.3759L332.464 62.5439L332.611 1.83148L343.761 6.66354L343.614 67.3759Z" fill="#0F00FF"/>
<path d="M343.761 6.66355L332.611 1.8315L348.945 0L360.096 4.83205L343.761 6.66355Z" fill="#1607FF"/>
<path d="M303.239 32.7332L292.088 27.9012C293.018 27.9791 293.849 28.096 294.68 28.2519L305.831 33.0839C305 32.9281 304.119 32.8112 303.239 32.7332Z" fill="#969F17"/>
<path d="M305.782 33.084L294.632 28.2909C295.561 28.4857 296.392 28.7196 297.175 29.0313L308.325 33.8633C307.543 33.5516 306.711 33.2788 305.782 33.084Z" fill="#929C16"/>
<path d="M308.325 33.8633L297.175 29.0312C297.321 29.0702 297.468 29.1482 297.615 29.2261L308.765 34.0581C308.619 33.9412 308.472 33.9022 308.325 33.8633Z" fill="#1607FF"/>
<path d="M298.3 49.6844C298.3 49.6844 298.3 49.6454 298.3 49.6844C298.348 49.5285 298.397 49.4116 298.446 49.2557C298.495 49.1388 298.544 49.0609 298.593 48.944C298.642 48.7881 298.691 48.6323 298.74 48.4764C298.789 48.3595 298.789 48.2815 298.838 48.1646C298.886 48.0088 298.886 47.8139 298.935 47.6191C298.935 47.5022 298.984 47.4242 298.984 47.3073C299.033 47.0346 299.033 46.7228 299.033 46.4111C299.033 43.7612 298.3 41.8518 296.783 40.6827C296.441 40.41 296.05 40.1761 295.659 40.0203L284.508 35.1882C284.948 35.3831 285.339 35.6169 285.633 35.8507C287.149 37.0197 287.883 38.9292 287.883 41.579C287.883 41.8908 287.883 42.2025 287.834 42.4753C287.834 42.5922 287.785 42.6701 287.785 42.787C287.785 42.9819 287.736 43.1377 287.687 43.3326C287.687 43.4495 287.638 43.5664 287.589 43.6443C287.54 43.8002 287.491 43.9561 287.442 44.1119C287.394 44.2288 287.345 44.3458 287.296 44.4237C287.247 44.5796 287.198 44.6965 287.149 44.8523C287.051 45.0472 286.953 45.281 286.807 45.4758C286.758 45.5148 286.758 45.5538 286.709 45.6317C286.611 45.7486 286.562 45.8655 286.464 45.9824C286.366 46.0993 286.269 46.2162 286.171 46.3331C286.073 46.45 285.975 46.528 285.926 46.6449C285.829 46.7228 285.731 46.8397 285.633 46.9177C285.486 47.0735 285.291 47.2294 285.144 47.3463C284.948 47.5022 284.704 47.658 284.508 47.8139C284.459 47.8139 284.459 47.8529 284.41 47.8529C284.215 47.9698 283.97 48.1257 283.774 48.2426C283.677 48.2816 283.53 48.3595 283.432 48.3984C283.285 48.4764 283.139 48.5543 282.943 48.6323C282.845 48.6712 282.699 48.7492 282.552 48.7881C282.405 48.8661 282.258 48.905 282.063 48.983C281.867 49.0609 281.672 49.1388 281.427 49.1778C281.28 49.2168 281.134 49.2558 280.987 49.2947C280.742 49.3727 280.498 49.4116 280.302 49.4896C280.155 49.5285 280.009 49.5675 279.862 49.6065C279.569 49.6844 279.324 49.7234 279.031 49.7623C278.884 49.8013 278.737 49.8013 278.639 49.8403C278.199 49.9182 277.759 49.9572 277.319 50.0351L266.022 51.2821L277.172 56.1142L288.469 54.8672C288.91 54.8282 289.399 54.7503 289.79 54.6723C289.937 54.6334 290.083 54.6334 290.23 54.5944C290.524 54.5554 290.817 54.4775 291.061 54.4385C291.208 54.3995 291.355 54.3606 291.502 54.3216C291.746 54.2826 291.991 54.2047 292.186 54.1268C292.333 54.0878 292.48 54.0488 292.626 54.0099C292.822 53.9319 293.067 53.893 293.262 53.815C293.311 53.7761 293.409 53.7761 293.458 53.7371C293.556 53.6981 293.605 53.6592 293.702 53.6202C293.849 53.5812 293.947 53.5033 294.094 53.4643C294.24 53.3864 294.436 53.3084 294.583 53.2305C294.68 53.1915 294.827 53.1136 294.925 53.0746C294.974 53.0357 295.023 53.0357 295.072 52.9967C295.267 52.8798 295.414 52.8018 295.61 52.6849C295.659 52.6849 295.659 52.646 295.708 52.646C295.805 52.5681 295.952 52.4901 296.05 52.4122C296.148 52.3342 296.246 52.2563 296.343 52.1784C296.49 52.0615 296.588 51.9446 296.735 51.8666C296.783 51.8277 296.783 51.7887 296.832 51.7497C296.93 51.6718 297.028 51.5549 297.126 51.4769C297.175 51.399 297.224 51.36 297.321 51.3211C297.37 51.2821 297.37 51.2431 297.419 51.2042C297.517 51.0873 297.615 50.9704 297.713 50.8535C297.762 50.7755 297.81 50.7366 297.859 50.6586C297.908 50.6196 297.908 50.5417 297.957 50.5027C298.006 50.4638 298.006 50.4248 298.055 50.3469C298.104 50.0741 298.202 49.8793 298.3 49.6844Z" fill="#0F00FF"/>
<path d="M295.756 25.4462C295.805 25.4072 295.805 25.3683 295.854 25.2903C295.854 25.2514 295.903 25.2124 295.903 25.1734C295.952 25.0955 296.001 24.9786 296.001 24.8617C296.05 24.7838 296.099 24.6669 296.099 24.5499C296.148 24.3941 296.197 24.2772 296.245 24.1213C296.294 24.0433 296.294 23.9264 296.343 23.8485C296.392 23.6926 296.392 23.4978 296.441 23.3419C296.441 23.264 296.49 23.186 296.49 23.0691C296.539 22.7964 296.539 22.5236 296.539 22.2508C296.539 19.6789 295.61 17.8864 293.751 16.9122C293.605 16.8342 293.507 16.7953 293.36 16.7173L282.161 11.9243C282.307 12.0022 282.454 12.0412 282.552 12.1191C284.41 13.0933 285.339 14.8858 285.339 17.4577C285.339 17.7305 285.339 18.0033 285.291 18.2761C285.291 18.354 285.242 18.4319 285.242 18.5488C285.242 18.7047 285.193 18.8996 285.144 19.0554C285.144 19.1723 285.095 19.2503 285.046 19.3282C284.997 19.4841 284.948 19.6399 284.899 19.7568C284.85 19.8738 284.801 19.9517 284.801 20.0686C284.753 20.2245 284.704 20.3414 284.606 20.4973C284.606 20.5362 284.557 20.5752 284.508 20.6531C284.41 20.848 284.312 21.0428 284.166 21.2377V21.2766C284.117 21.3156 284.117 21.3545 284.068 21.3935C283.921 21.5884 283.823 21.7442 283.677 21.9001C283.579 21.978 283.53 22.056 283.432 22.1339C283.334 22.2508 283.236 22.3677 283.09 22.4846C282.894 22.6405 282.699 22.8354 282.503 22.9912C282.307 23.1471 282.063 23.3029 281.818 23.4588C281.769 23.4978 281.72 23.4978 281.672 23.5368C281.476 23.6537 281.329 23.7316 281.134 23.8485C280.987 23.9264 280.889 23.9654 280.742 24.0433C280.596 24.1213 280.449 24.1992 280.253 24.2772C280.107 24.3551 279.96 24.3941 279.813 24.472C279.569 24.5889 279.324 24.6669 279.031 24.7448C278.737 24.8617 278.395 24.9396 278.052 25.0565C278.004 25.0565 277.955 25.0955 277.906 25.0955C277.563 25.1734 277.221 25.2514 276.879 25.3293C276.83 25.3293 276.732 25.3683 276.683 25.3683C276.341 25.4462 275.95 25.5241 275.607 25.5631C275.558 25.5631 275.509 25.5631 275.412 25.6021C275.02 25.68 274.58 25.719 274.189 25.7969L266.022 26.6932L277.172 31.5252L285.339 30.629C285.78 30.59 286.171 30.5121 286.562 30.4341C286.611 30.4341 286.66 30.4341 286.758 30.3952C287.149 30.3172 287.491 30.2783 287.834 30.2003C287.883 30.2003 287.98 30.1614 288.029 30.1614C288.372 30.0834 288.714 30.0055 289.056 29.9276C289.105 29.9276 289.154 29.8886 289.203 29.8886C289.545 29.8106 289.888 29.6937 290.181 29.5768C290.377 29.4989 290.572 29.4599 290.768 29.382C290.866 29.343 290.915 29.304 290.964 29.304C291.11 29.2651 291.257 29.1871 291.404 29.1092C291.551 29.0313 291.746 28.9533 291.893 28.8754C292.04 28.7975 292.137 28.7585 292.284 28.6806C292.333 28.6416 292.431 28.6026 292.48 28.5637C292.578 28.4857 292.724 28.4468 292.822 28.3688C292.871 28.3299 292.92 28.3299 292.92 28.2909C293.116 28.174 293.311 28.0571 293.458 27.9402C293.507 27.9012 293.556 27.8622 293.605 27.8233C293.8 27.6674 293.996 27.5115 294.191 27.3556L294.24 27.3167C294.338 27.1998 294.485 27.0829 294.583 26.966C294.632 26.888 294.729 26.8101 294.827 26.7322V26.6932C294.974 26.5373 295.121 26.3425 295.218 26.1866C295.267 26.1476 295.267 26.1087 295.316 26.0697V26.0307C295.561 25.8359 295.659 25.6411 295.756 25.4462Z" fill="#0F00FF"/>
<path d="M287.638 5.06587C288.176 5.0269 288.714 4.98792 289.203 4.94895C289.301 4.94895 289.448 4.94896 289.545 4.90999C290.181 4.87102 290.768 4.87102 291.355 4.83205C291.502 4.83205 291.648 4.83205 291.795 4.83205C292.284 4.83205 292.724 4.83205 293.213 4.83205C293.36 4.83205 293.507 4.83205 293.654 4.83205C294.24 4.83205 294.778 4.87102 295.316 4.90999C295.414 4.90999 295.463 4.90999 295.561 4.90999C296.05 4.94896 296.49 4.98792 296.93 5.02689C297.077 5.02689 297.224 5.06587 297.37 5.06587C297.859 5.10484 298.348 5.18278 298.789 5.26071C298.838 5.26071 298.886 5.26071 298.886 5.26071C299.375 5.33865 299.865 5.41657 300.354 5.53347C300.549 5.57244 300.696 5.61143 300.843 5.65039C301.038 5.68936 301.185 5.72833 301.381 5.76729C301.576 5.80626 301.772 5.84522 301.919 5.92315C302.065 5.96212 302.261 6.00111 302.408 6.04008C302.603 6.07904 302.75 6.15697 302.946 6.19594C303.092 6.2349 303.288 6.31285 303.435 6.35182C303.63 6.39079 303.777 6.46872 303.924 6.54666C304.07 6.58563 304.217 6.66355 304.364 6.70252C304.657 6.81942 304.902 6.89738 305.195 7.01428L294.045 2.18221C293.849 2.10428 293.605 1.98737 293.36 1.90943C293.311 1.90943 293.262 1.87047 293.213 1.87047C293.067 1.8315 292.92 1.75356 292.773 1.71459C292.626 1.63665 292.431 1.59768 292.284 1.51975C292.137 1.48078 291.991 1.40286 291.795 1.36389C291.599 1.32492 291.453 1.24697 291.257 1.20801C291.11 1.16904 290.915 1.13007 290.768 1.09111C290.572 1.05214 290.426 1.01316 290.23 0.935223C290.083 0.896255 289.888 0.857292 289.692 0.818323C289.594 0.779355 289.448 0.77935 289.35 0.740382C289.301 0.740382 289.252 0.740392 289.203 0.701423C288.714 0.623487 288.274 0.506578 287.736 0.428641C287.687 0.428641 287.638 0.428641 287.638 0.428641C287.198 0.350705 286.709 0.311736 286.22 0.2338C286.073 0.2338 285.926 0.194841 285.78 0.194841C285.339 0.155873 284.85 0.116886 284.41 0.0779174C284.312 0.0779174 284.264 0.0779174 284.166 0.0779174C283.628 0.0389492 283.041 0.0389682 282.503 0C282.356 0 282.209 0 282.063 0C281.623 0 281.134 0 280.644 0C280.498 0 280.351 0 280.204 0C279.617 0 278.982 0.0389492 278.395 0.0779174C278.297 0.0779174 278.15 0.0779317 278.052 0.1169C277.515 0.155868 277.025 0.194832 276.487 0.2338C276.292 0.2338 276.145 0.272759 275.95 0.272759C275.314 0.311727 274.629 0.389663 273.944 0.4676L249.687 3.19538L260.838 8.02745L285.095 5.29967C285.78 5.22173 286.415 5.1438 287.1 5.10483C287.296 5.10483 287.491 5.06587 287.638 5.06587Z" fill="#1607FF"/>
<path d="M260.74 68.7009L249.589 63.8688L249.736 3.19537L260.886 8.02743L260.74 68.7009Z" fill="#0F00FF"/>
<path d="M312.384 36.5911C314.341 38.8123 315.319 41.5011 315.319 44.6575C315.319 50.5807 312.971 55.2958 308.374 58.8419C303.728 62.388 297.126 64.6482 288.469 65.6224L260.74 68.7398L260.886 8.06642L285.144 5.33865C293.898 4.36444 300.745 4.98794 305.635 7.2481C310.526 9.50825 312.971 13.3661 312.971 18.8996C312.971 21.7832 312.189 24.4331 310.575 26.8881C308.961 29.3041 306.565 31.2914 303.239 32.7722C307.347 33.084 310.428 34.3699 312.384 36.5911ZM296.343 52.1004C298.104 50.7365 298.984 48.8271 298.984 46.3721C298.984 43.7223 298.251 41.8129 296.735 40.6438C295.218 39.4748 292.822 39.0461 289.448 39.4358L277.221 40.7997L277.172 55.9972L288.469 54.7503C291.991 54.3606 294.632 53.5033 296.343 52.1004ZM277.319 17.0291L277.27 31.4863L285.437 30.59C289.154 30.1224 291.942 29.1872 293.8 27.7843C295.659 26.3815 296.588 24.5499 296.588 22.2898C296.588 19.7179 295.659 17.9254 293.8 16.9512C291.942 15.977 289.056 15.7042 285.193 16.1328L277.319 17.0291Z" fill="#F9F9FF"/>
<path d="M215.839 46.4891C215.839 46.4501 215.888 46.3722 215.888 46.3332C215.986 45.9825 216.083 45.5928 216.181 45.2031C216.23 45.0862 216.23 44.9693 216.279 44.8914C216.377 44.4627 216.475 44.0341 216.524 43.5665C216.524 43.5275 216.524 43.4885 216.524 43.4885C216.572 43.0599 216.621 42.6312 216.67 42.2026C216.67 42.0857 216.67 41.9688 216.719 41.8519C216.768 41.3842 216.768 40.9166 216.768 40.41L216.817 29.421C216.817 25.0955 215.643 21.6664 213.296 19.1334C212.367 18.1592 211.34 17.4188 210.117 16.8733L198.966 12.0412C200.189 12.5478 201.216 13.3272 202.145 14.3014C204.493 16.8343 205.715 20.2245 205.666 24.589L205.618 35.578C205.618 36.0846 205.618 36.5522 205.569 37.0198C205.569 37.1367 205.569 37.2536 205.52 37.3705C205.471 37.7992 205.422 38.2278 205.373 38.6565C205.373 38.6954 205.373 38.7344 205.373 38.7344C205.324 39.202 205.226 39.6307 205.128 40.0593C205.128 40.1762 205.08 40.2932 205.031 40.3711C204.933 40.7608 204.835 41.1504 204.737 41.5011C204.737 41.5401 204.688 41.618 204.688 41.657C204.542 42.0467 204.395 42.4753 204.248 42.865C204.199 42.9819 204.15 43.0599 204.101 43.1768C204.004 43.4496 203.857 43.7223 203.71 43.9561C203.612 44.151 203.515 44.3069 203.466 44.4627C203.319 44.6966 203.221 44.9303 203.074 45.1641C202.977 45.32 202.879 45.4759 202.781 45.6318C202.537 45.9825 202.292 46.3332 202.047 46.6839C201.901 46.8788 201.705 47.1126 201.558 47.3074C201.51 47.3853 201.412 47.4633 201.363 47.5412C201.265 47.6581 201.167 47.775 201.069 47.853C201.02 47.9309 200.923 48.0088 200.825 48.0868C200.727 48.2037 200.629 48.2816 200.531 48.3985C200.434 48.4765 200.385 48.5544 200.287 48.6323C200.189 48.7103 200.091 48.7882 199.993 48.8661C199.896 48.9441 199.798 49.022 199.749 49.061C199.651 49.1389 199.553 49.2168 199.455 49.2948C199.358 49.3727 199.26 49.4117 199.211 49.4896C199.113 49.5675 198.966 49.6455 198.869 49.7234C198.771 49.7624 198.673 49.8403 198.624 49.8793C198.477 49.9572 198.38 50.0352 198.233 50.1131C198.135 50.1521 198.086 50.191 197.988 50.269C197.744 50.4248 197.45 50.5417 197.206 50.6586C197.157 50.6586 197.108 50.6977 197.108 50.6977C196.863 50.8146 196.619 50.8925 196.374 51.0094C196.277 51.0483 196.228 51.0873 196.13 51.0873C195.885 51.1653 195.641 51.2432 195.445 51.3211C195.396 51.3211 195.347 51.3601 195.298 51.3601C195.005 51.438 194.712 51.516 194.418 51.5939C194.32 51.5939 194.271 51.6329 194.174 51.6329C193.929 51.6718 193.685 51.7498 193.44 51.7887C193.342 51.7887 193.244 51.8277 193.147 51.8277C192.804 51.8667 192.511 51.9446 192.168 51.9836C191.875 52.0225 191.582 52.0615 191.288 52.0615C191.239 52.0615 191.141 52.0615 191.093 52.0615C190.799 52.0615 190.506 52.1005 190.212 52.1005C189.919 52.1005 189.674 52.1005 189.381 52.1005C189.332 52.1005 189.234 52.1005 189.185 52.1005C188.892 52.1005 188.647 52.0615 188.403 52.0225H188.354C188.109 51.9836 187.865 51.9446 187.62 51.9057C187.571 51.9057 187.474 51.8667 187.425 51.8667C187.278 51.8277 187.131 51.7887 187.033 51.7887C186.838 51.7498 186.691 51.7108 186.495 51.6719C186.398 51.6329 186.251 51.5939 186.153 51.5549C186.006 51.516 185.811 51.438 185.664 51.3991C185.468 51.3211 185.322 51.2822 185.126 51.2042L196.277 56.0363C196.374 56.0752 196.472 56.1142 196.619 56.1532C196.668 56.1922 196.766 56.1921 196.815 56.2311C196.961 56.3091 197.157 56.348 197.304 56.387C197.401 56.426 197.548 56.4649 197.646 56.5039C197.793 56.5428 197.988 56.5818 198.184 56.6208C198.282 56.6208 198.331 56.6598 198.428 56.6598C198.477 56.6598 198.526 56.6987 198.575 56.6987C198.624 56.6987 198.722 56.7377 198.771 56.7377C199.015 56.7767 199.26 56.8156 199.504 56.8546H199.553C199.798 56.8936 200.091 56.8936 200.336 56.9326C200.385 56.9326 200.482 56.9326 200.531 56.9326C200.776 56.9326 201.069 56.9326 201.363 56.9326C201.656 56.9326 201.95 56.9325 202.243 56.8936C202.292 56.8936 202.39 56.8936 202.439 56.8936C202.732 56.8546 203.026 56.8546 203.319 56.8156C203.661 56.7767 203.955 56.7377 204.297 56.6598C204.395 56.6598 204.493 56.6208 204.591 56.6208C204.835 56.5818 205.08 56.5429 205.324 56.4649C205.422 56.4649 205.471 56.426 205.569 56.426C205.862 56.348 206.156 56.2701 206.449 56.1922C206.498 56.1922 206.547 56.1532 206.596 56.1532C206.84 56.0753 207.085 55.9973 207.28 55.9194C207.329 55.9194 207.378 55.8804 207.427 55.8804C207.476 55.8804 207.525 55.8414 207.525 55.8414C207.769 55.7635 208.014 55.6466 208.258 55.5297C208.307 55.5297 208.307 55.4907 208.356 55.4907C208.65 55.3738 208.894 55.2179 209.139 55.101C209.188 55.101 209.188 55.0621 209.237 55.0621C209.286 55.0231 209.334 54.9841 209.432 54.9451C209.579 54.8672 209.677 54.7893 209.823 54.7113C209.921 54.6724 210.019 54.5944 210.068 54.5555C210.166 54.4775 210.313 54.3996 210.41 54.3217C210.459 54.2827 210.508 54.2437 210.557 54.2437C210.606 54.2048 210.655 54.1658 210.655 54.1658C210.753 54.0878 210.85 54.0099 210.948 53.932C211.046 53.854 211.144 53.7761 211.193 53.7371C211.291 53.6592 211.388 53.5813 211.486 53.5033C211.535 53.4644 211.584 53.4254 211.633 53.3864C211.682 53.3475 211.682 53.3475 211.731 53.3085C211.829 53.2306 211.926 53.1136 212.024 52.9967C212.122 52.9188 212.171 52.8409 212.269 52.7629C212.367 52.646 212.464 52.5292 212.562 52.4512C212.611 52.4123 212.66 52.3343 212.709 52.2953L212.758 52.2564C212.953 52.0615 213.1 51.8667 213.247 51.6329C213.491 51.3601 213.687 51.0484 213.883 50.7366C213.932 50.6976 213.932 50.6197 213.98 50.5807C214.078 50.4249 214.176 50.269 214.274 50.1131C214.421 49.8793 214.567 49.6455 214.665 49.4117C214.763 49.2558 214.861 49.061 214.91 48.9051C214.959 48.7492 215.056 48.6323 215.105 48.4764C215.154 48.3595 215.203 48.2426 215.252 48.0868C215.301 47.9699 215.35 47.8919 215.399 47.775C215.545 47.2685 215.692 46.8788 215.839 46.4891Z" fill="#0F00FF"/>
<path d="M173.193 32.8891C173.193 32.7333 173.193 32.5774 173.242 32.4215C173.242 32.1098 173.291 31.798 173.291 31.4863C173.291 31.2914 173.34 31.1356 173.34 30.9407C173.389 30.6679 173.389 30.3952 173.438 30.1224C173.486 29.9276 173.486 29.7327 173.535 29.5379C173.584 29.2651 173.633 29.0313 173.682 28.7585C173.731 28.5637 173.78 28.3688 173.829 28.174C173.878 27.9402 173.927 27.6674 174.024 27.4336C174.073 27.2387 174.122 27.0439 174.171 26.8491C174.22 26.6153 174.318 26.3815 174.367 26.1477C174.416 25.9528 174.513 25.758 174.562 25.5631C174.66 25.3293 174.709 25.0955 174.807 24.8617C174.905 24.6669 174.954 24.472 175.051 24.2772C175.149 24.0434 175.247 23.8095 175.345 23.5757C175.443 23.3419 175.54 23.1471 175.638 22.9133C175.687 22.7964 175.736 22.6795 175.834 22.5626C175.981 22.2898 176.127 22.017 176.274 21.7053C176.323 21.6274 176.372 21.5494 176.421 21.4715C176.616 21.1208 176.812 20.77 177.057 20.4193C177.105 20.3414 177.154 20.2245 177.203 20.1466C177.399 19.8738 177.546 19.601 177.741 19.3282C177.79 19.2503 177.839 19.1723 177.937 19.0554C178.132 18.7437 178.377 18.4709 178.573 18.1592C178.573 18.1202 178.622 18.0812 178.622 18.0812C178.866 17.7695 179.111 17.4577 179.404 17.107C179.453 17.0291 179.551 16.9512 179.6 16.8732C179.795 16.6394 180.04 16.4056 180.235 16.1718C180.333 16.0549 180.431 15.977 180.529 15.8601C180.822 15.5483 181.116 15.2366 181.458 14.9248C181.8 14.5741 182.143 14.2624 182.534 13.9117C182.925 13.5609 183.365 13.2102 183.806 12.8595C183.952 12.7426 184.099 12.6257 184.197 12.5478C184.49 12.314 184.784 12.0801 185.126 11.8463C185.371 11.6905 185.615 11.4956 185.811 11.3398C185.86 11.3008 185.957 11.2618 186.006 11.1839C186.349 10.9501 186.691 10.7163 187.082 10.4824C187.18 10.4435 187.229 10.3655 187.327 10.3266C187.62 10.1317 187.963 9.93688 188.305 9.74204C188.354 9.70307 188.452 9.66413 188.501 9.62516C188.892 9.39135 189.283 9.19652 189.723 9.00168C189.772 8.96271 189.87 8.92373 189.919 8.88476C190.261 8.72888 190.604 8.57303 190.946 8.41716C191.093 8.33922 191.239 8.30025 191.386 8.22232C191.679 8.10541 191.973 7.9885 192.217 7.8716C192.364 7.79366 192.56 7.75469 192.706 7.67675C193 7.55985 193.293 7.44293 193.587 7.36499C193.734 7.32602 193.88 7.24808 194.027 7.20911C194.369 7.0922 194.712 6.97534 195.054 6.85843C195.152 6.81946 195.25 6.78048 195.396 6.74151C195.836 6.58564 196.326 6.46873 196.766 6.35183C196.863 6.31286 196.961 6.31288 197.108 6.27391C197.45 6.19597 197.842 6.07904 198.184 6.0011C198.331 5.96214 198.526 5.9232 198.673 5.88423C199.015 5.80629 199.309 5.76732 199.651 5.68939C199.847 5.65042 199.993 5.61143 200.189 5.57246C200.531 5.49453 200.874 5.45555 201.216 5.41658C201.363 5.37761 201.51 5.37763 201.705 5.33867C202.194 5.26073 202.732 5.18279 203.221 5.14382C203.71 5.10486 204.15 5.06587 204.64 5.0269C204.786 5.0269 204.933 4.98794 205.08 4.98794C205.422 4.94897 205.764 4.94899 206.107 4.91003C206.253 4.91003 206.4 4.90999 206.547 4.87102C206.938 4.87102 207.329 4.83206 207.721 4.83206C207.77 4.83206 207.818 4.83206 207.867 4.83206C208.307 4.83206 208.748 4.83206 209.188 4.83206C209.335 4.83206 209.432 4.83206 209.579 4.83206C209.872 4.83206 210.215 4.87102 210.508 4.87102C210.655 4.87102 210.802 4.87106 210.9 4.91003C211.242 4.94899 211.584 4.94897 211.927 4.98794C212.024 4.98794 212.073 4.98793 212.171 5.0269C212.562 5.06587 213.002 5.14382 213.394 5.18278C213.492 5.18278 213.589 5.22174 213.687 5.22174C213.981 5.26071 214.274 5.33866 214.567 5.37762C214.714 5.41659 214.812 5.41657 214.959 5.45554C215.154 5.49451 215.399 5.53349 215.595 5.61142C215.741 5.65039 215.888 5.68938 215.986 5.72835C216.23 5.76731 216.426 5.84525 216.67 5.92319C216.768 5.96216 216.915 6.0011 217.013 6.04006C217.257 6.118 217.551 6.19597 217.795 6.27391C217.844 6.31288 217.942 6.31286 217.991 6.35183C218.333 6.46873 218.627 6.58565 218.969 6.70255C219.262 6.81946 219.556 6.93637 219.8 7.05327L208.65 2.22121C208.405 2.10431 208.112 1.98739 207.867 1.87049H207.818C207.476 1.75359 207.183 1.63667 206.84 1.51977C206.791 1.4808 206.694 1.48082 206.645 1.44185C206.4 1.36391 206.107 1.28599 205.862 1.20805C205.764 1.16908 205.618 1.1301 205.52 1.09113C205.324 1.01319 205.08 0.974223 204.835 0.896287C204.688 0.857318 204.542 0.818331 204.444 0.779363C204.248 0.740395 204.004 0.662497 203.808 0.623528C203.759 0.623528 203.661 0.584522 203.613 0.584522C203.564 0.584522 203.466 0.545564 203.417 0.545564C203.123 0.467627 202.83 0.42865 202.537 0.389682C202.439 0.389682 202.341 0.350723 202.243 0.350723C201.852 0.272787 201.461 0.233809 201.02 0.194841C200.923 0.194841 200.874 0.19485 200.776 0.155882C200.434 0.116914 200.091 0.0779648 199.749 0.0779648C199.602 0.0779648 199.504 0.0779744 199.358 0.0390062C199.064 3.80543e-05 198.722 0 198.429 0C198.282 0 198.184 0 198.037 0C197.597 0 197.157 0 196.717 0C196.668 0 196.619 0 196.57 0C196.179 0 195.788 3.80543e-05 195.396 0.0390062C195.25 0.0390062 195.103 0.0389967 194.956 0.0779648C194.614 0.0779648 194.271 0.116914 193.929 0.155882C193.782 0.155882 193.636 0.155873 193.489 0.194841C193 0.233809 192.56 0.272796 192.071 0.311764C191.582 0.350732 191.044 0.428669 190.555 0.506605C190.408 0.545573 190.261 0.545554 190.066 0.584522C189.723 0.62349 189.381 0.701436 189.039 0.740404C188.843 0.779373 188.696 0.81836 188.501 0.857328C188.158 0.935264 187.865 0.974232 187.522 1.05217C187.376 1.09114 187.18 1.13008 187.033 1.16904C186.691 1.24698 186.3 1.32495 185.957 1.44185C185.86 1.48082 185.713 1.4808 185.615 1.51977C185.175 1.63667 184.686 1.75358 184.246 1.90945C184.148 1.94842 184.05 1.9874 183.903 2.02637C183.561 2.14328 183.219 2.26019 182.876 2.3771C182.73 2.41606 182.583 2.49396 182.436 2.53293C182.289 2.5719 182.094 2.64984 181.947 2.68881C181.8 2.72778 181.703 2.80573 181.556 2.84469C181.409 2.92263 181.214 2.9616 181.067 3.03953C180.773 3.15644 180.48 3.27335 180.235 3.39026C180.089 3.46819 179.942 3.50716 179.795 3.5851C179.453 3.74097 179.111 3.89682 178.768 4.0527C178.67 4.09167 178.622 4.13065 178.524 4.16962C178.132 4.36446 177.79 4.5593 177.399 4.75414C177.35 4.75414 177.35 4.7931 177.301 4.7931C177.252 4.83207 177.154 4.87106 177.105 4.91003C176.763 5.10487 176.47 5.29971 176.127 5.49455C176.03 5.53352 175.981 5.61141 175.883 5.65038C175.54 5.88419 175.149 6.11802 174.807 6.35183C174.758 6.3908 174.66 6.42977 174.611 6.50771C174.465 6.62461 174.269 6.74153 174.122 6.85843C174.024 6.8974 173.975 6.9753 173.878 7.01427C173.584 7.24808 173.242 7.4819 172.948 7.71571C172.802 7.83262 172.655 7.91057 172.557 8.02748C172.117 8.37819 171.726 8.72888 171.335 9.0796C170.992 9.39134 170.601 9.74205 170.259 10.0928C169.965 10.4045 169.623 10.7163 169.329 11.028C169.232 11.1449 169.134 11.2229 169.036 11.3398C168.889 11.4956 168.791 11.6125 168.645 11.7684C168.547 11.8853 168.498 11.9632 168.4 12.0801C168.351 12.1581 168.253 12.236 168.205 12.314C167.96 12.6257 167.667 12.9375 167.422 13.2882C167.373 13.3271 167.373 13.3661 167.373 13.3661C167.129 13.6778 166.933 13.9506 166.737 14.2624C166.688 14.3403 166.64 14.4182 166.542 14.5351C166.493 14.6131 166.444 14.691 166.395 14.7689C166.248 14.9638 166.15 15.1586 166.004 15.3535C165.955 15.4314 165.906 15.5483 165.857 15.6263C165.661 15.977 165.417 16.3277 165.221 16.6784C165.172 16.7563 165.123 16.8343 165.075 16.9122C164.928 17.185 164.781 17.4578 164.634 17.7695C164.586 17.8864 164.537 18.0033 164.439 18.1202C164.39 18.2371 164.292 18.393 164.243 18.5099C164.194 18.5878 164.145 18.7047 164.145 18.7827C164.048 19.0165 163.95 19.2503 163.852 19.4841C163.754 19.6789 163.705 19.8738 163.607 20.0686C163.51 20.3024 163.412 20.5362 163.363 20.77C163.314 20.9649 163.216 21.1597 163.167 21.3546C163.069 21.5884 163.021 21.8222 162.972 22.056C162.923 22.2509 162.874 22.4457 162.825 22.6405C162.776 22.8743 162.678 23.1471 162.629 23.3809C162.58 23.5757 162.531 23.7706 162.483 23.9654C162.434 24.2382 162.385 24.472 162.336 24.7448C162.287 24.9396 162.287 25.1345 162.238 25.3293C162.189 25.6021 162.14 25.8749 162.14 26.1477C162.14 26.3425 162.091 26.4983 162.091 26.6932C162.042 27.0049 162.042 27.3167 162.042 27.6284C162.042 27.7843 161.994 27.9402 161.994 28.0961C161.994 28.5637 161.945 29.0313 161.945 29.5379L161.896 40.449C161.896 47.9308 164.634 53.7761 170.21 57.9846C171.726 59.1537 173.34 60.0889 175.1 60.8683L186.251 65.7003C184.49 64.921 182.876 63.9857 181.36 62.8167C175.834 58.6081 173.046 52.7239 173.046 45.281L173.095 34.3699C173.144 33.8244 173.144 33.3567 173.193 32.8891Z" fill="#1607FF"/>
<path d="M224.789 10.0928C230.315 14.3403 233.103 20.1855 233.103 27.6285L233.054 38.5395C233.054 46.0214 230.266 52.4901 224.74 57.9457C219.213 63.4012 212.024 66.6356 203.123 67.6488C194.174 68.6619 186.935 67.0253 181.36 62.8167C175.834 58.6081 173.046 52.724 173.046 45.281L173.095 34.37C173.095 26.9271 175.883 20.4583 181.458 14.9638C187.033 9.46931 194.222 6.23496 203.172 5.22178C212.073 4.20861 219.262 5.84527 224.789 10.0928ZM216.719 40.3711L216.768 29.382C216.768 25.0566 215.594 21.6274 213.247 19.0944C210.899 16.5615 207.525 15.5873 203.221 16.0549C198.771 16.5615 195.396 18.3151 193.049 21.3546C190.701 24.3941 189.527 28.0571 189.527 32.4216L189.479 43.4106C189.479 47.814 190.652 51.2431 193 53.7761C195.347 56.27 198.771 57.2832 203.172 56.8156C207.476 56.348 210.802 54.5555 213.149 51.5159C215.545 48.4764 216.719 44.7355 216.719 40.3711Z" fill="#F9F9FF"/>
<path d="M430.736 49.4795C430.736 49.4405 430.785 49.3626 430.785 49.3236C430.883 48.9729 430.981 48.5832 431.078 48.1935C431.127 48.0766 431.127 47.9597 431.176 47.8818C431.274 47.4532 431.372 47.0245 431.421 46.5569C431.421 46.5179 431.421 46.479 431.421 46.479C431.47 46.0503 431.519 45.6216 431.567 45.193C431.567 45.0761 431.568 44.9592 431.616 44.8423C431.665 44.3747 431.665 43.9071 431.665 43.4005L431.714 32.4114C431.714 28.0859 430.541 24.6568 428.193 22.1239C427.264 21.1496 426.237 20.4092 425.014 19.8637L413.864 15.0316C415.086 15.5382 416.113 16.3176 417.042 17.2918C419.39 19.8247 420.613 23.215 420.564 27.5794L420.515 38.5684C420.515 39.075 420.515 39.5426 420.466 40.0102C420.466 40.1271 420.466 40.244 420.417 40.3609C420.368 40.7896 420.319 41.2183 420.27 41.6469C420.27 41.6859 420.27 41.7248 420.27 41.7248C420.221 42.1924 420.124 42.6211 420.026 43.0497C420.026 43.1667 419.977 43.2836 419.928 43.3615C419.83 43.7512 419.732 44.1408 419.635 44.4916C419.635 44.5305 419.586 44.6085 419.586 44.6474C419.439 45.0371 419.292 45.4658 419.145 45.8554C419.097 45.9723 419.048 46.0503 418.999 46.1672C418.901 46.44 418.754 46.7128 418.607 46.9466C418.51 47.1414 418.412 47.2973 418.363 47.4532C418.216 47.687 418.118 47.9208 417.972 48.1546C417.874 48.3104 417.776 48.4663 417.678 48.6222C417.434 48.9729 417.189 49.3236 416.945 49.6743C416.798 49.8692 416.602 50.103 416.456 50.2978C416.407 50.3758 416.309 50.4537 416.26 50.5316C416.162 50.6485 416.064 50.7654 415.967 50.8434C415.918 50.9213 415.82 50.9992 415.722 51.0772C415.624 51.1941 415.526 51.272 415.429 51.3889C415.331 51.4669 415.282 51.5448 415.184 51.6227C415.086 51.7007 414.988 51.7786 414.891 51.8565C414.793 51.9345 414.695 52.0124 414.646 52.0514C414.548 52.1293 414.45 52.2072 414.353 52.2852C414.255 52.3631 414.157 52.4021 414.108 52.48C414.01 52.558 413.864 52.6359 413.766 52.7139C413.668 52.7528 413.57 52.8307 413.521 52.8697C413.375 52.9476 413.277 53.0256 413.13 53.1036C413.032 53.1425 412.983 53.1815 412.885 53.2594C412.641 53.4153 412.348 53.5322 412.103 53.6491C412.054 53.6491 412.005 53.6881 412.005 53.6881C411.761 53.805 411.516 53.8829 411.272 53.9998C411.174 54.0388 411.125 54.0778 411.027 54.0778C410.783 54.1557 410.538 54.2336 410.342 54.3116C410.293 54.3116 410.245 54.3505 410.196 54.3505C409.902 54.4285 409.609 54.5064 409.315 54.5843C409.218 54.5843 409.169 54.6233 409.071 54.6233C408.826 54.6622 408.582 54.7402 408.337 54.7792C408.239 54.7792 408.142 54.8181 408.044 54.8181C407.701 54.8571 407.408 54.935 407.066 54.974C406.772 55.013 406.479 55.052 406.185 55.052C406.137 55.052 406.039 55.052 405.99 55.052C405.696 55.052 405.403 55.0909 405.109 55.0909C404.816 55.0909 404.572 55.0909 404.278 55.0909C404.229 55.0909 404.131 55.0909 404.082 55.0909C403.789 55.0909 403.544 55.0519 403.3 55.013H403.251C403.007 54.974 402.762 54.9351 402.517 54.8961C402.469 54.8961 402.371 54.8571 402.322 54.8571C402.175 54.8182 402.028 54.7792 401.931 54.7792C401.735 54.7402 401.588 54.7013 401.393 54.6623C401.295 54.6233 401.148 54.5843 401.05 54.5454C400.904 54.5064 400.708 54.4284 400.561 54.3895C400.366 54.3115 400.219 54.2726 400.023 54.1946L411.174 59.0267C411.272 59.0657 411.369 59.1047 411.516 59.1436C411.565 59.1826 411.663 59.1826 411.712 59.2215C411.858 59.2995 412.054 59.3385 412.201 59.3774C412.299 59.4164 412.445 59.4553 412.543 59.4943C412.69 59.5333 412.885 59.5723 413.081 59.6112C413.179 59.6112 413.228 59.6502 413.326 59.6502C413.375 59.6502 413.423 59.6891 413.472 59.6891C413.521 59.6891 413.619 59.7281 413.668 59.7281C413.912 59.7671 414.157 59.8061 414.402 59.845H414.45C414.695 59.884 414.988 59.884 415.233 59.923C415.282 59.923 415.38 59.923 415.429 59.923C415.673 59.923 415.967 59.923 416.26 59.923C416.553 59.923 416.847 59.9229 417.14 59.884C417.189 59.884 417.287 59.884 417.336 59.884C417.629 59.845 417.923 59.845 418.216 59.8061C418.559 59.7671 418.852 59.7281 419.194 59.6502C419.292 59.6502 419.39 59.6112 419.488 59.6112C419.732 59.5723 419.977 59.5333 420.221 59.4553C420.319 59.4553 420.368 59.4164 420.466 59.4164C420.759 59.3384 421.053 59.2605 421.346 59.1826C421.395 59.1826 421.444 59.1436 421.493 59.1436C421.737 59.0657 421.982 58.9877 422.178 58.9098C422.227 58.9098 422.275 58.8708 422.324 58.8708C422.373 58.8708 422.422 58.8319 422.422 58.8319C422.667 58.7539 422.911 58.637 423.156 58.5201C423.205 58.5201 423.205 58.4811 423.253 58.4811C423.547 58.3642 423.792 58.2084 424.036 58.0915C424.085 58.0915 424.085 58.0525 424.134 58.0525C424.183 58.0135 424.232 57.9745 424.329 57.9356C424.476 57.8576 424.574 57.7797 424.721 57.7018C424.818 57.6628 424.916 57.5849 424.965 57.5459C425.063 57.468 425.21 57.39 425.308 57.3121C425.356 57.2731 425.405 57.2342 425.454 57.2342C425.503 57.1952 425.552 57.1562 425.552 57.1562C425.65 57.0783 425.748 57.0003 425.846 56.9224C425.943 56.8445 426.041 56.7665 426.09 56.7276C426.188 56.6496 426.286 56.5717 426.383 56.4938C426.432 56.4548 426.481 56.4158 426.53 56.3768C426.579 56.3379 426.579 56.3379 426.628 56.2989C426.726 56.221 426.824 56.1041 426.921 55.9872C427.019 55.9092 427.068 55.8313 427.166 55.7534C427.264 55.6365 427.362 55.5196 427.459 55.4416C427.508 55.4027 427.557 55.3247 427.606 55.2858L427.655 55.2468C427.851 55.052 427.997 54.8571 428.144 54.6233C428.389 54.3505 428.584 54.0388 428.78 53.727C428.829 53.6881 428.829 53.6101 428.878 53.5712C428.975 53.4153 429.073 53.2594 429.171 53.1036C429.318 52.8697 429.465 52.6359 429.562 52.4021C429.66 52.2462 429.758 52.0514 429.807 51.8955C429.856 51.7396 429.954 51.6227 430.003 51.4669C430.051 51.35 430.1 51.2331 430.149 51.0772C430.198 50.9603 430.247 50.8824 430.296 50.7655C430.443 50.2589 430.589 49.8692 430.736 49.4795Z" fill="#0F00FF"/>
<path d="M388.09 35.8795C388.09 35.7237 388.09 35.5678 388.139 35.4119C388.139 35.1002 388.188 34.7884 388.188 34.4767C388.188 34.2819 388.237 34.126 388.237 33.9311C388.286 33.6584 388.286 33.3856 388.335 33.1128C388.384 32.918 388.384 32.7231 388.433 32.5283C388.481 32.2555 388.53 32.0217 388.579 31.7489C388.628 31.5541 388.677 31.3592 388.726 31.1644C388.775 30.9306 388.824 30.6578 388.922 30.424C388.97 30.2292 389.019 30.0343 389.068 29.8395C389.117 29.6057 389.215 29.3719 389.264 29.1381C389.313 28.9432 389.411 28.7484 389.46 28.5536C389.557 28.3197 389.606 28.0859 389.704 27.8521C389.802 27.6573 389.851 27.4624 389.949 27.2676C390.046 27.0338 390.144 26.8 390.242 26.5661C390.34 26.3323 390.438 26.1375 390.536 25.9037C390.584 25.7868 390.633 25.6699 390.731 25.553C390.878 25.2802 391.025 25.0074 391.171 24.6957C391.22 24.6178 391.269 24.5398 391.318 24.4619C391.514 24.1112 391.709 23.7604 391.954 23.4097C392.003 23.3318 392.052 23.2149 392.1 23.137C392.296 22.8642 392.443 22.5914 392.638 22.3187C392.687 22.2407 392.736 22.1628 392.834 22.0459C393.03 21.7341 393.274 21.4614 393.47 21.1496C393.47 21.1106 393.519 21.0716 393.519 21.0716C393.763 20.7599 394.008 20.4482 394.301 20.0974C394.35 20.0195 394.448 19.9416 394.497 19.8636C394.693 19.6298 394.937 19.396 395.133 19.1622C395.23 19.0453 395.328 18.9674 395.426 18.8505C395.72 18.5387 396.013 18.227 396.355 17.9152C396.698 17.5645 397.04 17.2528 397.431 16.9021C397.822 16.5514 398.263 16.2006 398.703 15.8499C398.85 15.733 398.996 15.6161 399.094 15.5382C399.388 15.3044 399.681 15.0706 400.023 14.8367C400.268 14.6809 400.512 14.4861 400.708 14.3302C400.757 14.2912 400.855 14.2522 400.904 14.1743C401.246 13.9405 401.588 13.7067 401.979 13.4729C402.077 13.4339 402.126 13.3559 402.224 13.317C402.517 13.1221 402.86 12.9273 403.202 12.7325C403.251 12.6935 403.349 12.6545 403.398 12.6156C403.789 12.3818 404.18 12.1869 404.62 11.9921C404.669 11.9531 404.767 11.9141 404.816 11.8752C405.158 11.7193 405.501 11.5634 405.843 11.4076C405.99 11.3296 406.137 11.2907 406.283 11.2127C406.577 11.0958 406.87 10.9789 407.115 10.862C407.261 10.7841 407.457 10.7451 407.604 10.6672C407.897 10.5503 408.191 10.4333 408.484 10.3554C408.631 10.3164 408.777 10.2385 408.924 10.1995C409.267 10.0826 409.609 9.96575 409.951 9.84885C410.049 9.80988 410.147 9.77089 410.293 9.73193C410.734 9.57605 411.223 9.45915 411.663 9.34224C411.761 9.30328 411.858 9.3033 412.005 9.26433C412.348 9.18639 412.739 9.06946 413.081 8.99152C413.228 8.95255 413.424 8.91361 413.57 8.87465C413.913 8.79671 414.206 8.75774 414.548 8.6798C414.744 8.64084 414.891 8.60185 415.086 8.56288C415.429 8.48495 415.771 8.44597 416.113 8.407C416.26 8.36803 416.407 8.36805 416.602 8.32908C417.091 8.25115 417.629 8.17321 418.118 8.13424C418.608 8.09527 419.048 8.05629 419.537 8.01732C419.683 8.01732 419.83 7.97836 419.977 7.97836C420.319 7.93939 420.662 7.93941 421.004 7.90044C421.151 7.90044 421.297 7.9004 421.444 7.86144C421.835 7.86144 422.227 7.82248 422.618 7.82248C422.667 7.82248 422.716 7.82248 422.765 7.82248C423.205 7.82248 423.645 7.82248 424.085 7.82248C424.232 7.82248 424.33 7.82248 424.476 7.82248C424.77 7.82248 425.112 7.86144 425.405 7.86144C425.552 7.86144 425.699 7.86147 425.797 7.90044C426.139 7.93941 426.481 7.93939 426.824 7.97836C426.922 7.97836 426.97 7.97835 427.068 8.01732C427.46 8.05629 427.9 8.13423 428.291 8.1732C428.389 8.1732 428.487 8.21216 428.584 8.21216C428.878 8.25113 429.171 8.32907 429.465 8.36804C429.611 8.40701 429.709 8.40699 429.856 8.44596C430.052 8.48493 430.296 8.5239 430.492 8.60184C430.638 8.64081 430.785 8.6798 430.883 8.71876C431.127 8.75773 431.323 8.83567 431.568 8.9136C431.665 8.95257 431.812 8.99151 431.91 9.03048C432.155 9.10842 432.448 9.18639 432.692 9.26433C432.741 9.3033 432.839 9.30328 432.888 9.34224C433.23 9.45915 433.524 9.57606 433.866 9.69297C434.16 9.80987 434.453 9.92679 434.698 10.0437L423.547 5.21163C423.303 5.09473 423.009 4.97781 422.765 4.86091H422.716C422.373 4.744 422.08 4.62709 421.738 4.51018C421.689 4.47122 421.591 4.47124 421.542 4.43227C421.297 4.35433 421.004 4.2764 420.759 4.19847C420.662 4.1595 420.515 4.12051 420.417 4.08154C420.221 4.00361 419.977 3.96464 419.732 3.8867C419.586 3.84774 419.439 3.80875 419.341 3.76978C419.145 3.73081 418.901 3.65291 418.705 3.61395C418.656 3.61395 418.559 3.57494 418.51 3.57494C418.461 3.57494 418.363 3.53598 418.314 3.53598C418.021 3.45804 417.727 3.41907 417.434 3.3801C417.336 3.3801 417.238 3.34114 417.14 3.34114C416.749 3.2632 416.358 3.22423 415.918 3.18526C415.82 3.18526 415.771 3.18527 415.673 3.1463C415.331 3.10733 414.988 3.06838 414.646 3.06838C414.499 3.06838 414.402 3.06839 414.255 3.02942C413.961 2.99046 413.619 2.99042 413.326 2.99042C413.179 2.99042 413.081 2.99042 412.934 2.99042C412.494 2.99042 412.054 2.99042 411.614 2.99042C411.565 2.99042 411.516 2.99042 411.467 2.99042C411.076 2.99042 410.685 2.99046 410.293 3.02942C410.147 3.02942 410 3.02941 409.853 3.06838C409.511 3.06838 409.169 3.10733 408.826 3.1463C408.68 3.1463 408.533 3.14629 408.386 3.18526C407.897 3.22423 407.457 3.26321 406.968 3.30218C406.479 3.34115 405.941 3.41909 405.452 3.49702C405.305 3.53599 405.158 3.53597 404.963 3.57494C404.62 3.61391 404.278 3.69185 403.936 3.73082C403.74 3.76979 403.593 3.80878 403.398 3.84775C403.055 3.92568 402.762 3.96465 402.42 4.04259C402.273 4.08155 402.077 4.12049 401.931 4.15946C401.588 4.2374 401.197 4.31536 400.855 4.43227C400.757 4.47124 400.61 4.47122 400.512 4.51018C400.072 4.62709 399.583 4.74399 399.143 4.89987C399.045 4.93883 398.947 4.97782 398.801 5.01679C398.458 5.13369 398.116 5.25061 397.774 5.36751C397.627 5.40648 397.48 5.48438 397.333 5.52335C397.187 5.56232 396.991 5.64026 396.844 5.67923C396.698 5.7182 396.6 5.79614 396.453 5.83511C396.306 5.91305 396.111 5.95202 395.964 6.02995C395.671 6.14686 395.377 6.26377 395.133 6.38067C394.986 6.45861 394.839 6.49758 394.693 6.57552C394.35 6.73139 394.008 6.88724 393.665 7.04311C393.568 7.08208 393.519 7.12107 393.421 7.16004C393.03 7.35488 392.687 7.54972 392.296 7.74456C392.247 7.74456 392.247 7.78352 392.198 7.78352C392.149 7.82249 392.052 7.86147 392.003 7.90044C391.66 8.09528 391.367 8.29012 391.025 8.48496C390.927 8.52393 390.878 8.60183 390.78 8.6408C390.438 8.87461 390.046 9.10844 389.704 9.34224C389.655 9.38121 389.557 9.42019 389.508 9.49813C389.362 9.61503 389.166 9.73194 389.019 9.84885C388.922 9.88782 388.873 9.96572 388.775 10.0047C388.481 10.2385 388.139 10.4723 387.846 10.7061C387.699 10.823 387.552 10.901 387.454 11.0179C387.014 11.3686 386.623 11.7193 386.232 12.07C385.889 12.3818 385.498 12.7325 385.156 13.0832C384.862 13.3949 384.52 13.7067 384.227 14.0184C384.129 14.1353 384.031 14.2133 383.933 14.3302C383.786 14.4861 383.689 14.603 383.542 14.7588C383.444 14.8757 383.395 14.9536 383.297 15.0705C383.248 15.1485 383.151 15.2265 383.102 15.3044C382.857 15.6161 382.564 15.9279 382.319 16.2786C382.27 16.3176 382.27 16.3565 382.27 16.3565C382.026 16.6683 381.83 16.9411 381.635 17.2528C381.586 17.3307 381.537 17.4087 381.439 17.5256C381.39 17.6035 381.341 17.6814 381.292 17.7594C381.146 17.9542 381.048 18.149 380.901 18.3439C380.852 18.4218 380.803 18.5387 380.754 18.6167C380.559 18.9674 380.314 19.3181 380.119 19.6688C380.07 19.7467 380.021 19.8247 379.972 19.9026C379.825 20.1754 379.678 20.4482 379.532 20.7599C379.483 20.8768 379.434 20.9937 379.336 21.1106C379.287 21.2275 379.189 21.3834 379.14 21.5003C379.091 21.5782 379.043 21.6952 379.043 21.7731C378.945 22.0069 378.847 22.2407 378.749 22.4745C378.651 22.6693 378.602 22.8642 378.505 23.059C378.407 23.2928 378.309 23.5266 378.26 23.7605C378.211 23.9553 378.113 24.1501 378.064 24.345C377.967 24.5788 377.918 24.8126 377.869 25.0464C377.82 25.2413 377.771 25.4361 377.722 25.6309C377.673 25.8648 377.575 26.1375 377.526 26.3713C377.478 26.5661 377.429 26.761 377.38 26.9558C377.331 27.2286 377.282 27.4624 377.233 27.7352C377.184 27.93 377.184 28.1249 377.135 28.3197C377.086 28.5925 377.037 28.8653 377.037 29.1381C377.037 29.3329 376.989 29.4888 376.989 29.6836C376.94 29.9953 376.94 30.3071 376.94 30.6188C376.94 30.7747 376.891 30.9306 376.891 31.0865C376.891 31.5541 376.842 32.0217 376.842 32.5283L376.793 43.4394C376.793 50.9213 379.532 56.7665 385.107 60.975C386.623 62.1441 388.237 63.0793 389.997 63.8587L401.148 68.6908C399.387 67.9114 397.774 66.9761 396.257 65.8071C390.731 61.5985 387.943 55.7143 387.943 48.2714L387.992 37.3604C388.041 36.8148 388.041 36.3472 388.09 35.8795Z" fill="#1607FF"/>
<path d="M439.686 13.0832C445.212 17.3307 448 23.176 448 30.6189L447.951 41.53C447.951 49.0118 445.163 55.4806 439.637 60.9361C434.111 66.3916 426.921 69.626 418.021 70.6392C409.071 71.6523 401.833 70.0157 396.257 65.8071C390.731 61.5986 387.943 55.7144 387.943 48.2715L387.992 37.3604C387.992 29.9175 390.78 23.4487 396.355 17.9542C401.93 12.4597 409.12 9.22537 418.069 8.2122C426.97 7.19903 434.16 8.83569 439.686 13.0832ZM431.616 43.3615L431.665 32.3724C431.665 28.047 430.492 24.6178 428.144 22.0848C425.797 19.5519 422.422 18.5777 418.118 19.0454C413.668 19.5519 410.293 21.3055 407.946 24.345C405.598 27.3845 404.425 31.0475 404.425 35.412L404.376 46.401C404.376 50.8044 405.55 54.2336 407.897 56.7665C410.245 59.2604 413.668 60.2736 418.069 59.806C422.373 59.3384 425.699 57.5459 428.046 54.5064C430.443 51.4668 431.616 47.7259 431.616 43.3615Z" fill="#F9F9FF"/>
<path d="M128.885 47.0634L117.783 42.2314L133.726 40.4389L144.877 45.2709L128.885 47.0634Z" fill="#1607FF"/>
<path d="M127.075 54.5064C127.173 54.2725 127.32 54.0777 127.417 53.8439V53.8049C127.515 53.6101 127.564 53.4153 127.662 53.2204C127.711 53.1425 127.711 53.1035 127.711 53.0256C127.76 52.8697 127.858 52.6749 127.906 52.519C127.906 52.48 127.955 52.4021 127.955 52.3631C128.004 52.1293 128.102 51.8955 128.151 51.6617C128.151 51.6227 128.2 51.5448 128.2 51.5058C128.249 51.311 128.298 51.1161 128.347 50.9213C128.347 50.8433 128.396 50.7654 128.396 50.6875C128.444 50.4926 128.493 50.2588 128.542 50.025C128.542 49.986 128.542 49.9471 128.591 49.9081C128.64 49.6353 128.689 49.3625 128.738 49.0898C128.738 49.0118 128.738 48.9339 128.787 48.856C128.836 48.6222 128.836 48.4273 128.885 48.1935C128.885 48.1156 128.885 48.0376 128.933 47.9597C128.982 47.648 128.982 47.3752 128.982 47.0634L117.783 42.2314C117.783 42.5431 117.734 42.8159 117.734 43.1276C117.734 43.2056 117.734 43.2835 117.685 43.3615C117.685 43.5953 117.636 43.7901 117.587 44.0239C117.587 44.1018 117.587 44.1798 117.538 44.2577C117.49 44.5305 117.441 44.8033 117.392 45.0761C117.392 45.115 117.392 45.154 117.343 45.193C117.294 45.4268 117.245 45.6216 117.196 45.8554C117.196 45.9334 117.147 46.0113 117.147 46.0892C117.098 46.2841 117.049 46.4789 117 46.6738C117 46.7127 116.952 46.7907 116.952 46.8296C116.903 47.0634 116.805 47.2972 116.756 47.531C116.756 47.57 116.707 47.648 116.707 47.6869C116.658 47.8428 116.609 48.0376 116.511 48.1935C116.511 48.2714 116.462 48.3104 116.462 48.3883C116.365 48.5832 116.316 48.778 116.218 48.9729V49.0119C116.12 49.2457 115.973 49.4795 115.876 49.6743C115.827 49.7133 115.827 49.7522 115.778 49.8302C115.68 50.025 115.533 50.2588 115.387 50.4537C115.387 50.4926 115.338 50.5316 115.338 50.5316C115.191 50.7654 115.044 50.9603 114.849 51.1941C114.702 51.3889 114.506 51.5448 114.36 51.7396C114.311 51.8176 114.213 51.8955 114.164 51.9345C113.968 52.1293 113.724 52.2852 113.528 52.48C113.479 52.519 113.479 52.519 113.43 52.5579C113.186 52.7528 112.892 52.9087 112.599 53.1035C112.55 53.1035 112.55 53.1425 112.501 53.1425C112.208 53.2983 111.914 53.4542 111.621 53.5711C111.523 53.6101 111.474 53.6491 111.376 53.688C111.132 53.766 110.887 53.8829 110.643 53.9608C110.496 53.9998 110.349 54.0387 110.203 54.1167C109.958 54.1946 109.713 54.2725 109.469 54.3115C109.322 54.3505 109.175 54.3894 109.029 54.4284C108.735 54.5064 108.491 54.5453 108.197 54.5843C108.051 54.6233 107.953 54.6233 107.806 54.6622C107.366 54.7402 106.926 54.8181 106.486 54.8571C106.192 54.896 105.948 54.896 105.654 54.935C105.605 54.935 105.508 54.935 105.459 54.935C105.165 54.935 104.921 54.974 104.676 54.974H104.627C104.383 54.974 104.138 54.974 103.894 54.974C103.845 54.974 103.747 54.974 103.698 54.974C103.453 54.974 103.209 54.935 102.964 54.896C102.915 54.896 102.916 54.896 102.867 54.896C102.622 54.8571 102.426 54.8181 102.231 54.7791C102.182 54.7791 102.133 54.7402 102.084 54.7402C101.986 54.7012 101.84 54.7012 101.742 54.6622C101.546 54.6233 101.399 54.5843 101.204 54.5453C101.106 54.5063 101.008 54.4674 100.861 54.4284C100.715 54.3894 100.519 54.3115 100.372 54.2726C100.226 54.1946 100.03 54.1557 99.8833 54.0777L111.034 58.9098C111.132 58.9487 111.23 58.9877 111.376 59.0267C111.425 59.0656 111.474 59.0656 111.572 59.1046C111.719 59.1436 111.865 59.2215 112.061 59.2605C112.159 59.2994 112.257 59.3384 112.403 59.3774C112.55 59.4163 112.746 59.4553 112.941 59.4943C113.039 59.4943 113.088 59.5333 113.186 59.5333C113.235 59.5333 113.284 59.5332 113.332 59.5722C113.381 59.5722 113.43 59.6112 113.479 59.6112C113.675 59.6501 113.919 59.6891 114.115 59.7281C114.164 59.7281 114.164 59.7281 114.213 59.7281C114.457 59.7671 114.702 59.767 114.946 59.806C114.995 59.806 115.093 59.806 115.142 59.806C115.387 59.806 115.631 59.806 115.876 59.806H115.924C116.169 59.806 116.462 59.806 116.707 59.7671C116.756 59.7671 116.854 59.7671 116.903 59.7671C117.196 59.7671 117.441 59.7281 117.734 59.6891C118.174 59.6501 118.614 59.5722 119.054 59.4943C119.201 59.4553 119.348 59.4553 119.446 59.4163C119.739 59.3774 120.033 59.2994 120.277 59.2605C120.424 59.2215 120.571 59.1825 120.717 59.1436C120.962 59.0656 121.206 59.0267 121.451 58.9487C121.598 58.9098 121.744 58.8708 121.891 58.7929C121.989 58.7539 122.087 58.7149 122.184 58.676C122.331 58.637 122.478 58.559 122.625 58.5201C122.722 58.4811 122.82 58.4421 122.869 58.4032C123.163 58.2863 123.456 58.1304 123.701 57.9745C123.701 57.9745 123.749 57.9745 123.749 57.9355C123.798 57.9355 123.798 57.8966 123.798 57.8966C124.092 57.7407 124.385 57.5459 124.63 57.39C124.679 57.351 124.679 57.351 124.728 57.3121C124.923 57.1562 125.168 57.0003 125.314 56.8055L125.363 56.7665C125.461 56.6886 125.51 56.6106 125.559 56.5717C125.706 56.4548 125.804 56.3379 125.901 56.182C125.95 56.143 125.999 56.0651 126.048 56.0261C126.195 55.8313 126.39 55.5975 126.537 55.3637L126.586 55.3247V55.2857C126.733 55.0909 126.831 54.896 126.977 54.6622C127.026 54.6233 127.075 54.5453 127.075 54.5064Z" fill="#0F00FF"/>
<path d="M129.031 29.2939L117.881 24.4619C117.685 20.5261 116.658 17.7204 114.8 16.0058C114.311 15.5382 113.675 15.1485 112.99 14.8367L124.141 19.6688C124.825 19.9805 125.461 20.3702 125.95 20.8378C127.809 22.5524 128.836 25.3581 129.031 29.2939Z" fill="#0F00FF"/>
<path d="M100.91 68.5348L89.7598 63.7028C88.1459 63.0013 86.6298 62.1441 85.2605 61.1309C79.8319 57.1172 77.0932 51.4668 77.0932 44.1018L88.2437 48.9339C88.2437 56.2988 90.9336 61.9882 96.411 65.9629C97.7804 66.9761 99.2965 67.8334 100.91 68.5348Z" fill="#0F00FF"/>
<path d="M88.2927 34.8274C88.2927 34.6715 88.2927 34.5156 88.3416 34.3598C88.3416 34.048 88.3905 33.7363 88.3905 33.4246C88.3905 33.2297 88.4394 33.0738 88.4394 32.879C88.4883 32.6062 88.4883 32.3334 88.5372 32.0607C88.5861 31.8658 88.5861 31.671 88.635 31.4761C88.6839 31.2034 88.7328 30.9696 88.7817 30.6968C88.8306 30.5019 88.8796 30.3071 88.9285 30.1123C88.9774 29.8785 89.0263 29.6057 89.1241 29.3719C89.173 29.177 89.2219 28.9822 89.2708 28.7873C89.3197 28.5535 89.4175 28.3197 89.4664 28.0859C89.5153 27.8911 89.6132 27.6962 89.6621 27.5403C89.7599 27.3065 89.8088 27.0727 89.9066 26.8389C89.9555 26.6441 90.0533 26.4882 90.1022 26.2934C90.2 26.0596 90.2978 25.8258 90.3957 25.5919C90.4935 25.3971 90.5424 25.2023 90.6402 25.0074C90.6891 24.8905 90.738 24.7736 90.8358 24.6567C90.9336 24.4229 91.0803 24.1891 91.227 23.9163C91.2759 23.7994 91.3249 23.6825 91.4227 23.6046C91.5694 23.2928 91.765 22.9811 91.9606 22.7083C91.9606 22.6693 92.0096 22.6304 92.0096 22.5914C92.2052 22.2796 92.4008 21.9289 92.6453 21.6172C92.9388 21.1885 93.2322 20.7599 93.5745 20.3312C93.6235 20.2533 93.7213 20.1364 93.8191 20.0585C94.0636 19.7467 94.357 19.396 94.6016 19.0843C94.7483 18.8894 94.895 18.7336 95.0906 18.5387C95.1884 18.4608 95.2373 18.3439 95.3352 18.2659C95.6286 17.9542 95.922 17.6814 96.2155 17.3697C96.5578 17.019 96.9002 16.7072 97.2425 16.3955C97.2914 16.3565 97.3892 16.2786 97.4381 16.2396C97.7804 15.9278 98.1228 15.6551 98.4652 15.3823C98.6119 15.2654 98.7586 15.1485 98.8564 15.0705C99.1498 14.8367 99.3944 14.6419 99.6878 14.4081C99.8345 14.2912 99.9812 14.2132 100.128 14.0963C100.47 13.8625 100.813 13.6287 101.204 13.3949C101.302 13.317 101.399 13.278 101.497 13.2001C101.937 12.9273 102.427 12.6156 102.916 12.3818C103.258 12.1869 103.649 11.9921 103.992 11.7972C103.992 11.7972 103.992 11.7972 104.04 11.7972C104.432 11.6024 104.823 11.4075 105.214 11.2517C105.361 11.2127 105.459 11.1348 105.605 11.0958C105.899 10.9789 106.143 10.862 106.437 10.7451C106.584 10.6672 106.73 10.6282 106.877 10.5502C107.121 10.4333 107.415 10.3554 107.708 10.2385C107.855 10.1995 108.002 10.1216 108.149 10.0826C108.442 9.96572 108.735 9.88779 109.078 9.77088C109.176 9.73192 109.322 9.69295 109.42 9.65398C109.86 9.53708 110.251 9.42017 110.692 9.30326C110.789 9.26429 110.887 9.26429 110.936 9.22532C111.279 9.14738 111.67 9.03048 112.012 8.95254C112.159 8.91357 112.306 8.87461 112.452 8.83564C112.746 8.7577 113.039 8.71873 113.381 8.6408C113.528 8.60183 113.724 8.56286 113.871 8.56286C114.213 8.52389 114.506 8.44597 114.849 8.407C114.995 8.36803 115.142 8.36803 115.289 8.32906C115.778 8.25112 116.218 8.21215 116.707 8.13422C117.245 8.05628 117.783 8.0173 118.321 7.97834C118.468 7.97834 118.614 7.93938 118.761 7.93938C119.152 7.90041 119.593 7.9004 119.984 7.86144C120.131 7.86144 120.228 7.86145 120.375 7.82248C120.864 7.78351 121.402 7.78349 121.891 7.78349C121.989 7.78349 122.087 7.78349 122.185 7.78349C122.576 7.78349 122.967 7.78349 123.358 7.78349C123.505 7.78349 123.652 7.78349 123.798 7.78349C124.19 7.78349 124.63 7.82248 125.021 7.82248C125.07 7.82248 125.168 7.82248 125.217 7.82248C125.657 7.86145 126.097 7.90041 126.537 7.93938C126.635 7.93938 126.782 7.97834 126.88 7.97834C127.222 8.0173 127.564 8.05629 127.858 8.09526C127.955 8.09526 128.102 8.13422 128.2 8.13422C128.64 8.21215 129.031 8.29008 129.423 8.36802C129.569 8.40698 129.667 8.40699 129.814 8.44596C130.01 8.48493 130.205 8.5239 130.401 8.60184C130.547 8.64081 130.645 8.67977 130.792 8.71874C130.988 8.75771 131.183 8.79669 131.33 8.87462C131.477 8.91359 131.623 8.95255 131.721 8.99152C131.917 9.03049 132.064 9.10841 132.259 9.14738C132.406 9.18635 132.504 9.22533 132.65 9.30326C132.797 9.3812 132.993 9.42017 133.139 9.4981C133.384 9.61501 133.629 9.69294 133.873 9.80984L122.723 5.01677C122.527 4.93883 122.282 4.82192 122.087 4.74398C122.038 4.74398 122.038 4.70503 121.989 4.70503C121.842 4.62709 121.647 4.58812 121.5 4.51018C121.353 4.47122 121.255 4.43224 121.109 4.3543C120.962 4.31533 120.766 4.23741 120.571 4.19844C120.424 4.15948 120.277 4.12049 120.179 4.08152C119.984 4.04255 119.837 3.96463 119.641 3.92566C119.495 3.88669 119.397 3.84773 119.25 3.80876C119.055 3.76979 118.859 3.73082 118.663 3.65288C118.566 3.61391 118.419 3.61391 118.321 3.57494C118.321 3.57494 118.321 3.57494 118.272 3.57494C117.881 3.497 117.441 3.41908 117.049 3.34114C116.952 3.34114 116.805 3.30216 116.707 3.30216C116.365 3.26319 116.022 3.22423 115.729 3.18526C115.631 3.18526 115.484 3.1463 115.387 3.1463C114.946 3.10733 114.506 3.06837 114.066 3.0294C114.017 3.0294 113.919 3.0294 113.871 3.0294C113.479 2.99043 113.088 2.99042 112.648 2.99042C112.501 2.99042 112.354 2.99042 112.208 2.99042C111.816 2.99042 111.425 2.99042 111.034 2.99042C110.936 2.99042 110.838 2.99042 110.741 2.99042C110.251 2.99042 109.762 3.0294 109.273 3.0294C109.127 3.0294 109.029 3.02939 108.882 3.06836C108.491 3.10733 108.1 3.10733 107.659 3.1463C107.513 3.1463 107.366 3.18526 107.219 3.18526C106.681 3.22423 106.143 3.2632 105.605 3.34114C105.116 3.38011 104.627 3.45804 104.187 3.53598C104.04 3.57495 103.894 3.57495 103.747 3.61392C103.405 3.65289 103.111 3.73081 102.769 3.76978C102.622 3.80875 102.427 3.84772 102.28 3.84772C101.986 3.92566 101.644 3.96463 101.351 4.04256C101.204 4.08153 101.057 4.12049 100.91 4.15946C100.568 4.2374 100.177 4.31534 99.8345 4.43224C99.7367 4.47121 99.6878 4.47122 99.59 4.51018C99.1498 4.62709 98.7097 4.74398 98.3184 4.86088C98.2206 4.89985 98.0739 4.93884 97.9761 4.97781C97.6827 5.09471 97.3403 5.17264 97.0469 5.28955C96.9001 5.32852 96.7534 5.40644 96.6067 5.44541C96.46 5.48437 96.3133 5.52335 96.2155 5.60129C96.0687 5.64026 95.9709 5.7182 95.8242 5.75717C95.6775 5.83511 95.5308 5.87407 95.384 5.95201C95.0906 6.06892 94.8461 6.18581 94.5527 6.30271C94.406 6.34168 94.3081 6.41962 94.1614 6.45859C93.7701 6.65343 93.3789 6.80929 92.9877 7.00413C92.6453 7.16 92.303 7.35485 92.0096 7.5497C91.9606 7.5497 91.9606 7.58865 91.9117 7.58865C91.4227 7.86143 90.9825 8.13422 90.4934 8.407C90.3956 8.48494 90.2978 8.5239 90.2 8.60184C89.8577 8.83565 89.4664 9.06945 89.1241 9.30326C89.0752 9.34223 88.9774 9.38121 88.9285 9.45914C88.8307 9.49811 88.7818 9.57605 88.6839 9.65398C88.3905 9.84883 88.0971 10.0826 87.8525 10.3164C87.7058 10.4333 87.5591 10.5113 87.4613 10.6282C87.119 10.901 86.7766 11.1737 86.4343 11.4855C86.3853 11.5244 86.3364 11.5634 86.2875 11.6414C86.2875 11.6414 86.2876 11.6413 86.2386 11.6803C85.8963 11.9921 85.5539 12.3428 85.2116 12.6545C84.9182 12.9663 84.6247 13.2391 84.3313 13.5508C84.2335 13.6287 84.1846 13.7456 84.0868 13.8236C83.989 13.9405 83.8912 14.0574 83.7933 14.1743C83.7444 14.2522 83.6955 14.2912 83.6466 14.3691C83.3532 14.6809 83.1087 15.0316 82.8641 15.3433C82.7663 15.4213 82.7174 15.5382 82.6196 15.6161C82.2772 16.0448 81.9838 16.4734 81.6904 16.9021C81.6904 16.941 81.6415 16.941 81.6415 16.98C81.4458 17.2528 81.2502 17.5645 81.0546 17.8763C81.0546 17.9152 81.0057 17.9542 81.0057 17.9932C80.8101 18.3049 80.6633 18.6166 80.4677 18.8894C80.4188 19.0063 80.3699 19.1232 80.2721 19.2012C80.1254 19.435 80.0276 19.6688 79.8809 19.9416C79.832 20.0585 79.783 20.1754 79.6852 20.2923C79.6363 20.3702 79.5874 20.4481 79.5874 20.5261C79.5385 20.643 79.4896 20.7599 79.4407 20.8768C79.3429 21.1106 79.2451 21.3444 79.1473 21.5782C79.0495 21.7731 79.0005 21.929 78.9516 22.1238C78.8538 22.3576 78.756 22.5914 78.7071 22.8252C78.6582 23.0201 78.5604 23.2149 78.5115 23.3708C78.4137 23.6046 78.3648 23.8384 78.3159 24.0722C78.267 24.267 78.2181 24.4619 78.1692 24.6567C78.1202 24.8905 78.0713 25.1633 77.9735 25.3971C77.9246 25.5919 77.8757 25.7868 77.8268 25.9816C77.7779 26.2544 77.729 26.4882 77.6801 26.761C77.6312 26.9558 77.6312 27.1507 77.5823 27.3455C77.5334 27.6183 77.4845 27.8911 77.4845 28.1639C77.4845 28.3587 77.4356 28.5146 77.4356 28.7094C77.3867 29.0211 77.3866 29.3329 77.3866 29.6446C77.3866 29.8005 77.3377 29.9564 77.3377 30.1123C77.3377 30.5799 77.2888 31.0475 77.2888 31.5151L77.2399 44.1798C77.2399 51.5447 79.9298 57.2341 85.4072 61.2088C86.8255 62.222 88.2927 63.0793 89.9066 63.7807L101.057 68.6128C99.4433 67.9114 97.9272 67.054 96.5578 66.0409C91.1292 62.0272 88.3905 56.3768 88.3905 49.0118L88.4394 36.3472C88.2927 35.7626 88.2927 35.295 88.2927 34.8274Z" fill="#0F00FF"/>
<path d="M116.707 8.17317C125.608 7.16 132.455 8.32905 137.15 11.6803C141.845 15.0316 144.486 20.2143 145.121 27.2676L145.023 27.5403L129.08 29.3329C128.885 25.3971 127.858 22.5914 125.999 20.8768C124.19 19.1622 121.06 18.5387 116.658 19.0453C112.941 19.4739 110.007 21.0717 107.855 23.8774C105.703 26.6831 104.627 30.1902 104.627 34.3598L104.578 47.1024C104.578 51.3109 105.703 54.5453 108.051 56.8834C110.349 59.2215 113.577 60.1567 117.636 59.6891C121.598 59.2604 124.385 58.0135 126.048 56.0261C127.711 54.0387 128.64 51.0381 128.885 47.1024L144.828 45.3098L144.926 45.5436C144.583 52.7138 142.138 58.4031 137.541 62.6507C132.944 66.8982 126.341 69.548 117.636 70.5222C108.931 71.4964 101.84 69.9767 96.3621 66.0019C90.9335 61.9882 88.1948 56.3378 88.1948 48.9728L88.2437 36.3082C88.2437 28.9822 90.8846 22.7083 96.1665 17.4866C101.448 12.1869 108.295 9.10841 116.707 8.17317Z" fill="#F9F9FF"/>
<path d="M27.6319 58.3353L16.4814 53.5033L49.1016 49.8403L60.2522 54.6723L27.6319 58.3353Z" fill="#0F00FF"/>
<path d="M27.6807 32.3826L16.5302 27.5505L44.211 24.433L55.3615 29.2651L27.6807 32.3826Z" fill="#0F00FF"/>
<path d="M60.4477 4.83203L60.3988 15.6652L27.6807 19.3282V32.3825L55.3615 29.2651L55.3126 40.0982L27.6318 43.2157V58.3353L60.2521 54.6723L60.2032 65.5055L11.1505 71L11.2972 10.3265L60.4477 4.83203Z" fill="#F9F9FF"/>
<path d="M11.1504 71L0 66.168L0.14674 5.49457L11.2971 10.3266L11.1504 71Z" fill="#1607FF"/>
<path d="M11.2973 10.3266L0.146759 5.49453L49.2973 0L60.4478 4.83207L11.2973 10.3266Z" fill="#0F00FF"/>
</svg>
