<svg width="313" height="232" viewBox="0 0 313 232" fill="none" xmlns="http://www.w3.org/2000/svg">
<path fill-rule="evenodd" clip-rule="evenodd" d="M255.582 52.1907C255.671 53.8995 255.798 54.5787 257.016 55.681C257.421 56.0481 257.752 56.0264 258.004 56.01C258.346 55.9873 258.545 55.9743 258.597 56.944C258.63 57.5548 258.242 57.975 257.851 58.3976C257.62 58.6479 257.388 58.8994 257.242 59.1919C255.347 62.9813 256.549 67.8391 257.501 71.6855L257.502 71.6868C257.534 71.8172 257.566 71.9465 257.597 72.0744C258.077 74.0202 258.727 76.0079 259.385 78.0185C261.402 84.1866 263.49 90.5721 260.957 96.6389C260.848 96.9003 260.746 97.2601 260.635 97.6487C260.403 98.4657 260.136 99.4086 259.692 99.8298C258.83 99.3757 258.2 99.5743 257.802 100.425C257.564 100.692 257.326 100.959 257.088 101.225C255.578 102.616 253.971 103.132 251.968 102.393C247.928 100.904 247.26 96.2301 247.239 92.5508C247.215 88.4956 248.082 84.2486 249.009 80.298C249.046 80.142 249.084 79.9839 249.123 79.8244C249.555 78.0363 250.038 76.0405 248.864 74.3931C248.131 73.3648 247.293 73.3119 246.482 73.2605C245.955 73.2272 245.44 73.1946 244.972 72.8969C244.344 72.4973 244.476 70.8393 244.617 69.078C244.759 67.2893 244.911 65.3939 244.282 64.603C242.102 61.8625 241.343 68.5666 241.308 69.9359C241.27 71.4358 241.352 73.1857 242.062 74.5453C242.317 75.0345 242.836 75.4961 243.353 75.9564C243.966 76.5014 244.576 77.0444 244.745 77.6292C244.935 78.285 244.46 79.6234 244.05 80.7758C243.831 81.3939 243.631 81.9585 243.562 82.3361C243.258 84.0024 243.152 85.7046 243.065 87.3935C242.771 93.0989 243.67 99.1033 247.612 103.531C249.341 105.472 252.271 107.677 255.012 107.324C256.807 107.092 258.61 106.315 260.342 105.568C260.944 105.309 261.537 105.054 262.119 104.826C263.636 110.633 265.916 116.256 268.344 121.74C269.112 123.474 269.863 125.223 270.614 126.973L270.615 126.974C271.929 130.036 273.246 133.102 274.657 136.098C277.675 142.507 281.908 148.304 286.124 154.077C288.436 157.244 290.744 160.403 292.843 163.653C298.565 172.513 301.774 182.679 302.543 193.138C302.618 194.144 302.541 195.303 302.464 196.478C302.351 198.189 302.236 199.937 302.579 201.308C302.676 201.698 302.772 202.048 302.861 202.375C303.266 203.861 303.533 204.843 303.242 206.781C303.138 207.475 303.008 208.153 302.879 208.827C302.52 210.704 302.17 212.537 302.411 214.505C302.478 215.046 302.588 215.648 302.704 216.281V216.282C303.097 218.421 303.554 220.912 302.597 222.608C302.14 222.122 301.683 221.716 301.243 221.325C300.25 220.441 299.344 219.635 298.717 218.173C298.435 217.514 298.273 216.891 298.125 216.318C297.791 215.027 297.52 213.984 296.081 213.334C295.418 213.033 294.824 212.87 294.26 212.714L294.259 212.714C293.312 212.453 292.445 212.213 291.462 211.389C289.558 209.791 288.26 207.838 287.322 205.551C285.72 201.647 285.488 197.415 286.842 193.405C287.928 190.191 291.099 184.173 295.545 186.327C295.412 186.055 295.287 185.778 295.164 185.502C294.674 184.408 294.191 183.331 293.185 182.63C292.657 182.262 292.003 182.013 291.331 181.758H291.33C290.605 181.482 289.858 181.198 289.222 180.747C287.853 179.775 286.302 178.738 284.773 178.027C284.307 177.81 283.86 177.678 283.392 177.54L283.384 177.538L283.293 177.511L283.211 177.486L283.155 177.47C283.106 177.455 283.055 177.44 283.005 177.424C282.424 177.246 281.433 177.309 280.997 177.337C280.88 177.345 280.803 177.349 280.783 177.347C278.157 176.951 275.229 175.692 273.626 173.795C272.419 172.366 271.352 171.033 270.431 169.399C269.362 167.504 268.881 167.404 267.155 167.046C266.948 167.002 266.724 166.956 266.479 166.902C263.144 166.171 261.028 165.672 258.36 163.207C255.48 160.546 253.352 157.249 251.245 153.982L251.07 153.712C249.997 152.05 249.034 151.708 247.512 151.167H247.511C247.234 151.068 246.938 150.963 246.62 150.842C246.068 150.633 245.419 150.089 244.772 149.548H244.772C244.01 148.91 243.251 148.275 242.659 148.193C242.485 148.168 241.947 148.366 241.414 148.562C240.979 148.721 240.548 148.88 240.318 148.917C239.404 149.064 238.61 149.038 237.693 148.942C235.591 148.722 233.733 148.168 232.319 146.529C227.966 141.482 226.638 129.586 232.599 125.293C232.958 125.034 233.361 124.82 233.767 124.605C234.644 124.139 235.528 123.669 235.986 122.74C236.625 121.445 236.491 119.2 236.392 117.535C236.373 117.195 236.354 116.879 236.343 116.601C236.273 114.725 236.185 112.683 235.904 110.834C235.774 109.984 235.678 109.627 235.33 108.776C234.751 107.363 234.515 107.305 233.619 107.086C233.445 107.043 233.245 106.994 233.014 106.928C232.587 106.807 232.209 106.721 231.867 106.643C230.584 106.35 229.805 106.173 228.823 104.659C227.831 103.128 227.366 101.2 227.276 99.3908C227.244 98.7442 227.336 98.1169 227.426 97.5026C227.572 96.5124 227.712 95.5568 227.318 94.6132C226.907 93.6274 226.34 92.7473 225.77 91.8621C225.046 90.737 224.316 89.6031 223.891 88.2328C223.841 88.0723 223.785 87.8967 223.725 87.7081C223.013 85.4707 221.724 81.4189 223.227 79.6642C223.547 79.2903 223.977 79.0564 224.418 78.8153C224.985 78.5066 225.572 78.1862 225.979 77.5455C226.173 77.2396 226.349 76.9552 226.516 76.687C227.429 75.2125 228.038 74.2308 229.623 72.9058C230.058 72.5416 230.488 72.1207 230.925 71.6937C231.874 70.7656 232.856 69.8055 233.996 69.3219C234.93 68.9251 235.835 69.1192 236.687 69.302C237.328 69.4395 237.938 69.5702 238.509 69.4389C239.509 69.2077 239.638 67.5404 239.753 66.034C239.805 65.3583 239.854 64.7152 239.979 64.2483C240.521 62.2154 241.685 60.0961 243.093 58.5097C243.282 58.2964 243.49 58.1523 243.695 58.0107C244 57.8001 244.297 57.5943 244.516 57.1734C244.786 56.6545 244.851 56.0155 244.916 55.3727C244.971 54.8342 245.026 54.2926 245.202 53.8172C245.664 52.5708 246.785 50.425 248.038 49.7418C250.095 48.6195 251.344 49.7538 252.537 50.838C253.467 51.6824 254.363 52.4967 255.582 52.1907ZM302.973 153.596C307.021 155.906 306.136 162.16 305.601 165.944C305.582 166.075 305.564 166.204 305.546 166.328C305.356 167.685 305.521 169.056 305.683 170.402C305.8 171.375 305.916 172.336 305.895 173.268C305.859 174.826 305.343 175.217 304.757 175.661C304.397 175.933 304.012 176.225 303.694 176.816C303.459 176.203 303.16 175.55 302.852 174.88C302.212 173.483 301.538 172.01 301.333 170.671L300.852 169.418C301.259 169.255 301.476 168.972 301.501 168.568C301.631 167.842 301.661 167.105 301.691 166.365V166.365C301.701 166.127 301.711 165.889 301.724 165.65C301.945 161.605 302.253 157.586 302.973 153.596ZM221.881 100.992V100.992V100.991L221.882 100.988C221.913 100.881 221.944 100.774 221.976 100.669C221.909 99.0155 221.535 95.5966 219.655 94.8077C217.292 93.8157 216.596 96.5786 216.659 98.4249C216.708 99.8974 217.333 102.593 218.791 103.412C220.843 104.563 221.394 102.669 221.881 100.992ZM218.993 148.326V148.326C219.037 151.346 219.08 154.331 220.006 157.25C221.094 160.682 222.917 163.99 224.722 167.093C228.231 173.125 229.067 178.814 229.49 185.713C222.892 182.768 219.293 172.705 217.116 166.41C216.808 165.521 216.498 164.632 216.187 163.743L216.187 163.742V163.741C215.333 161.297 214.477 158.848 213.68 156.39C213.527 155.919 213.358 155.428 213.184 154.922V154.922C212.132 151.87 210.89 148.267 211.96 145.279C212.039 145.337 212.117 145.394 212.193 145.45L212.199 145.454C214.428 147.091 215.441 147.835 216.771 144.852C217.297 145.427 217.823 146.002 218.35 146.576L218.976 147.26C218.983 147.615 218.988 147.97 218.993 148.324V148.324V148.325V148.325V148.325V148.326V148.326ZM209.455 114.283C209.095 115.922 208.812 117.564 208.546 119.221C208.627 119.39 208.708 119.563 208.789 119.737H208.79C209.685 121.644 210.659 123.72 212.926 124.233C213.289 124.315 213.63 124.272 213.967 124.228C214.379 124.175 214.784 124.122 215.217 124.3C215.797 124.537 216.217 125.072 216.629 125.598C216.9 125.944 217.169 126.285 217.477 126.535C221.072 129.46 225.094 123.982 223.132 120.905C220.755 123.434 218.083 122.602 217.223 119.166C216.405 115.893 217.607 111.811 219.34 109.047C216.142 107.609 214.187 107.704 211.344 109.639C211.254 109.7 211.171 109.756 211.097 109.806L211.096 109.806C210.75 110.038 210.562 110.165 210.437 110.336C210.288 110.542 210.228 110.812 210.097 111.407V111.407L210.097 111.409C210.08 111.489 210.061 111.576 210.04 111.669C209.96 112.026 209.879 112.384 209.799 112.742V112.742V112.743C209.683 113.256 209.568 113.769 209.455 114.283ZM261.852 179.126L261.852 179.126C261.386 179.472 260.919 179.818 260.511 180.227C260.343 180.395 260.073 180.798 259.801 181.205C259.469 181.701 259.133 182.201 258.976 182.287C257.835 182.916 256.838 182.109 255.722 181.095C253.527 179.098 252.156 174.859 252.259 171.928C252.38 168.504 254.81 166.155 257.891 168.596C260.368 170.559 261.085 173.322 261.809 176.117C262.027 176.957 262.246 177.799 262.513 178.624C262.297 178.796 262.075 178.961 261.852 179.126ZM246.621 215.955C249.104 215.638 250.737 216.023 253.179 216.623C253.904 213.626 253.144 209.727 251.148 207.3C250.703 206.758 250.036 206.338 249.41 205.943C248.725 205.511 248.088 205.109 247.841 204.613C247.529 203.986 247.46 203.073 247.389 202.147C247.325 201.311 247.261 200.464 247.016 199.806C246.604 205.236 246.37 210.523 246.621 215.955ZM210.708 211.157C211.49 209.6 212.273 208.044 213.056 206.488C213.566 207.294 215.062 209.397 216.298 208.724C216.864 208.416 216.808 207.077 216.757 205.845C216.723 205.051 216.692 204.301 216.83 203.9C218.492 205.746 219.316 207.921 219.076 210.389C218.99 211.267 218.721 212.498 218.461 213.342C218.361 213.664 218.125 214.084 217.882 214.515C217.427 215.324 216.948 216.175 217.307 216.498C217.014 216.481 216.712 216.473 216.407 216.465H216.406C215.094 216.432 213.725 216.397 212.819 215.587C211.891 214.758 211.222 212.721 210.805 211.451C210.771 211.347 210.738 211.249 210.708 211.157ZM243.259 200.487C243.436 198.269 243.399 196.128 243.323 193.902C240.68 192.126 237.287 191.779 237.188 195.859C237.094 199.68 239.804 202.624 242.255 205.287L242.256 205.288L242.257 205.289L242.259 205.29C242.575 205.634 242.886 205.972 243.187 206.307C243.432 205.264 243.363 204.077 243.294 202.899C243.246 202.073 243.198 201.252 243.259 200.487ZM239.163 158.062C239.104 158.288 239.047 158.539 238.986 158.803C238.576 160.601 238.026 163.004 235.756 162.114C233.701 161.308 233.205 158.055 233.201 156.242C233.197 154.753 233.443 152.018 235.533 151.929C238.099 151.819 239.016 156.342 239.163 158.062ZM220.706 117.509C221.365 116.346 222.147 114.967 222.886 115.144C222.54 114.376 222.194 113.609 221.847 112.841C221.5 112.074 221.154 111.306 220.807 110.538C220.707 111.045 220.596 111.554 220.485 112.066C219.996 114.322 219.497 116.621 219.779 118.918C220.037 118.689 220.354 118.13 220.706 117.509ZM273.719 219.064C277.391 215.602 279.838 216.864 283.839 218.926C284.033 219.027 284.23 219.128 284.432 219.232C285.424 219.74 286.38 219.963 287.335 220.185C288.08 220.359 288.824 220.532 289.584 220.84C290.452 221.192 290.997 222.103 291.512 222.963C292.02 223.811 292.499 224.612 293.231 224.783C291.441 224.971 289.658 225.213 287.877 225.456H287.877C282.86 226.138 277.858 226.819 272.755 226.262C272.994 225.29 272.966 224.309 272.938 223.336C272.896 221.875 272.854 220.432 273.719 219.064ZM272.029 207.328C276.46 207.101 277.64 200.305 277.609 196.909C277.706 194.446 277.056 191.272 275.154 189.512C273.952 188.399 271.171 186.648 269.503 186.909C264.973 187.617 263.83 195.849 264.269 199.291C264.669 202.431 268.468 207.512 272.029 207.328Z" fill="#FF5678"/>
<path fill-rule="evenodd" clip-rule="evenodd" d="M205.572 54.8118C204.798 55.1586 206.276 57.7499 206.506 58.2253C207.106 59.4663 207.838 62.0305 209.259 61.3246C208.03 59.1538 206.801 56.9826 205.572 54.8118ZM23.7525 205.161C22.7168 204.704 21.3315 208.64 21.147 209.439C20.6322 211.667 21.063 213.163 22.8531 214.604C22.1121 211.42 22.9998 208.249 23.7525 205.161ZM262.845 36.6188C261.557 34.9532 259.696 31.8608 257.094 33.4979C256.066 34.1448 255.275 36.2182 254.641 37.231C253.646 38.8211 252.682 40.3519 251.925 42.0638C253.211 41.537 253.97 40.3914 255.12 39.7651C255.907 39.3373 256.623 39.2962 257.381 38.9844C259.055 38.2957 261.348 37.6203 262.845 36.6188ZM52.8302 200.724C53.5271 203.441 54.1717 206.15 54.7109 208.903C55.0756 210.765 56.301 213.396 55.6616 215.219C57.3182 214.997 58.9748 214.775 60.6314 214.553C59.4025 211.767 58.7558 208.795 58.3908 205.785C58.1673 203.943 58.4538 203.418 57.0606 202.393C55.9818 201.6 54.0825 201.218 52.8302 200.724ZM43.6674 96.7212C46.8525 99.8969 49.6382 103.517 53.023 106.476C54.7818 108.014 56.5848 109.508 58.3898 110.991C59.9203 112.248 62.3544 115.021 64.3464 115.405C64.5926 114.393 65.1749 112.733 65.0189 111.694C65.6001 111.095 65.4197 110.658 64.4776 110.381C63.9012 109.94 63.3313 109.491 62.7669 109.034C60.5529 107.193 58.4576 105.194 56.3596 103.225C54.274 101.268 52.3447 99.2199 50.5341 97.0086C49.5803 95.8441 49.0225 94.6766 47.4582 94.3343C45.5998 93.9278 44.9814 95.3712 43.6674 96.7212ZM107.324 214.638C107.235 216.364 111.495 217.421 112.789 217.525C116.288 217.804 118.561 216.276 119.765 213.262C122.272 206.988 126.285 201.461 127.964 194.864C128.462 192.906 128.893 192.015 127.118 191.018C126.39 190.609 124.494 189.697 123.702 190.217C122.949 190.713 122.331 192.943 121.847 193.754C121.077 195.041 120.202 196.266 119.367 197.512C115.459 203.339 111.52 209.014 107.324 214.638ZM56.7621 128.238L73.1193 137.555C73.8015 135.209 74.1152 132.764 74.7546 130.399C75.2098 128.719 76.3809 126.346 76.3068 124.87C76.1963 122.668 74.4839 119.744 73.7374 117.645C72.807 115.029 71.8766 112.412 70.9463 109.796C69.6863 110.996 68.2356 111.834 68.2202 113.398C68.2115 114.292 68.8097 114.849 68.4629 115.862C68.2195 116.572 67.1844 117.516 66.6844 118.043C65.2241 119.587 65.2699 119.664 63.7352 118.221C61.411 121.56 59.0864 124.899 56.7621 128.238ZM74.7577 171.921C74.9918 169.676 75.2924 167.524 75.7993 165.322C76.1109 163.969 77.427 161.19 76.9941 159.916C76.676 158.979 74.7849 158.164 74.0484 157.655C71.9176 156.18 69.8368 154.629 67.7274 153.124C65.8777 151.805 64.0003 150.517 62.1854 149.15C60.5043 147.884 59.2355 146.31 57.2011 145.767C55.4213 145.292 53.1628 145.602 51.3192 145.541C48.8452 145.459 46.3329 145.432 43.8613 145.552C35.5666 145.957 26.2744 145.379 18.2945 147.683C14.5229 148.772 12.0916 149.414 9.98322 152.972C7.54499 157.088 5.46177 161.364 3.68811 165.81C3.42917 166.459 2.8438 167.395 2.86618 168.105C2.90888 169.459 3.39542 169.147 4.69941 169.919C6.10843 170.754 7.48955 171.744 8.83555 172.684C11.1436 174.296 14.0092 175.978 16.4038 177.235C19.2848 178.747 22.1872 180.103 25.1178 181.625C26.9748 182.59 28.8969 183.379 30.7184 184.439C32.6959 185.59 34.91 185.918 37.0418 186.817C43.6426 189.601 50.0311 192.174 56.5087 195.35C62.8313 198.45 69.2266 201.07 75.6956 203.805C84.0564 207.339 92.3345 210.607 101.054 213.051C101.693 213.23 103.035 213.861 103.665 213.833C105.013 213.771 105.319 212.789 106.129 211.684C107.72 209.51 109.253 207.296 110.775 205.075C114.077 200.256 117.306 195.384 120.861 190.744C110.787 187.944 101.447 182.778 92.5918 177.476C92.2147 178.532 91.9145 180.87 90.7058 181.223C89.2114 181.66 88.1257 179.597 87.456 178.649C86.8221 180.221 85.7374 185.525 83.7086 185.409C80.9054 185.248 81.4002 180.853 81.0511 179.109C79.5057 181.155 77.7148 183.508 75.6147 180.361C74.1592 178.18 74.3207 174.353 74.7577 171.921ZM191.473 146.858C190.174 146.453 188.883 146.094 187.613 145.641C187.279 144.935 186.724 144.721 185.949 144.999C185.314 145.055 184.696 144.977 184.096 144.763C181.442 144.312 178.503 143.725 175.967 142.963C173.709 142.284 171.58 141.685 169.285 141.174C167.923 140.872 161.854 139.161 160.957 140.168C160.681 140.478 161.156 144.232 161.089 144.901C160.97 146.091 160.911 148.05 160.155 149.041C159.865 149.421 158.759 149.842 158.36 150.138C157.062 151.099 155.863 152.294 154.572 153.291C151.753 155.467 149.008 157.725 146.132 159.83C144.099 161.318 141.772 162.054 139.514 163.135C141.121 163.421 144.264 161.881 145.886 161.404C147.986 160.785 150.047 160.097 152.195 159.531C156.599 158.369 161.111 157.058 165.587 155.821C168.336 155.062 171.239 154.27 173.904 153.265C175.086 152.818 176.014 151.781 176.795 152.837C177.418 153.68 176.664 154.789 176.185 155.413C173.391 159.056 165.803 159.942 161.741 161.453C157.157 163.158 152.635 164.954 147.915 166.152C142.403 167.551 136.42 168.622 131.283 171.079C127.022 173.117 122.194 173.907 117.663 175.103C113.408 176.226 108.363 176.451 104.341 178.358C106.078 179.725 108.648 180.438 110.673 181.357C113.152 182.481 115.656 183.507 118.107 184.699C119.151 185.206 120.242 185.96 121.298 186.382C122.638 186.917 122.467 186.635 123.851 186.526C126.005 186.357 128.912 185.972 130.662 187.534C132.773 189.419 131.436 191.484 131.746 193.79C131.958 195.371 132.067 195.117 133.829 195.359C135.451 195.58 137.071 195.839 138.672 196.185C140.647 196.612 142.669 197.327 144.593 197.944C147.577 198.9 147.901 200.026 151.011 198.791C159.868 195.275 169.029 192.384 177.943 189.057C182.049 187.525 186.172 184.568 190.037 182.347C194.996 179.498 199.479 176.415 202.836 171.671C204.366 169.509 205.962 165.856 205.64 163.172C205.353 160.771 203.57 158.103 202.42 156.038C200.953 153.403 199.66 152.38 197.415 150.629C195.853 149.412 193.441 146.841 191.473 146.858ZM92.8304 167.258C92.9678 168.584 92.1903 174.047 92.9605 174.887C94.2776 176.324 97.5082 174.647 98.7581 174.219C102.818 172.828 107.538 173.133 111.673 172.032C115.684 170.963 119.607 169.579 123.641 168.492C125.804 167.907 127.858 166.992 129.986 166.297C132.356 165.523 135.001 165.099 137.198 163.934C136.926 163.261 127.419 164.881 126.338 164.968C122.585 165.272 119.052 164.695 115.353 164.018C107.195 162.523 99.5074 158.978 91.4541 156.679C91.8315 160.378 102.283 161.115 101.038 165.408C100.691 166.605 96.0151 168.561 94.4687 167.81C91.327 166.284 95.1701 164.137 96.7362 163.601C94.3523 162.24 92.0711 160.763 89.8953 159.086C87.5659 157.29 86.5635 154.77 85.315 152.17C82.7053 146.734 76.5293 143.572 71.732 140.188C66.5446 136.529 61.0212 133.419 55.8369 129.768C54.9117 129.116 54.4795 129.415 54.1545 128.225C53.8067 126.951 55.0845 125.332 55.7047 124.36C57.3347 121.805 59.2334 119.387 61.3869 117.248C58.6098 115.365 55.61 113.811 53.0058 111.68C50.3661 109.52 48.1817 106.883 45.8529 104.41C42.1327 112.473 36.9188 119.952 32.8244 127.859C31.207 130.983 30.352 135.707 32.8116 138.733C35.4 141.919 40.2265 140.679 43.8802 140.848C47.7364 141.026 51.2541 141.461 55.0577 142.551C56.7783 143.044 58.3447 142.898 59.9985 143.69C61.9381 144.618 63.8457 145.81 65.691 146.91C69.32 149.074 72.7103 151.783 76.1371 154.251C77.5427 155.264 85.1645 161.267 79.1359 160.34C79.1359 165.957 78.148 171.71 77.6294 177.3C79.0591 175.599 80.0787 173.871 80.9436 171.828C81.4581 170.612 81.4646 167.51 83.1791 168.246C85.7581 169.351 83.7493 177.478 83.7493 179.676C84.3884 178.446 84.836 177.122 85.296 175.818C85.6445 174.831 86.0801 172.031 86.8073 171.369C89.2417 169.152 89.583 175.197 89.583 176.459C90.3715 174.23 90.5165 171.852 90.5957 169.497C90.6266 168.568 90.3963 167.123 90.6318 166.224C91.0237 164.726 90.9772 164.824 92.5518 164.191C92.6448 165.213 92.7378 166.236 92.8304 167.258ZM168.035 214.663C168.228 216.563 168.966 217.939 167.712 219.648C170.136 219.475 172.524 219.263 174.953 219.325C176.903 219.374 179.819 219.818 181.639 218.986C182.38 218.647 182.632 219.231 183.013 218.583C183.375 217.968 182.525 215.925 182.423 215.419C181.932 212.988 181.693 210.494 181.248 208.048C180.942 206.366 180.043 203.059 181.173 201.471C182.835 199.133 183.566 202.426 183.999 203.888C185.425 208.706 185.343 213.281 185.343 218.231C187.491 218.231 190.312 217.296 192.383 216.733C195.24 215.955 198.291 215.156 201.059 214.141C203.67 213.184 205.969 211.787 207.62 209.538C208.854 207.856 211.592 203.706 210.912 201.846C210.078 199.566 206.102 197.998 203.979 197.747C201.225 197.422 198.401 197.973 195.583 198.205C192.565 198.453 189.638 199.122 186.652 199.444C183.753 199.756 179.862 200.72 177.045 199.998C176.972 201.152 177.941 202.703 178.278 203.879C178.721 205.419 179.116 206.974 179.475 208.535C179.859 210.207 182.24 216.217 180.075 217.419C177.533 218.829 176.32 212.789 176.004 211.317C175.249 207.807 174.6 204.3 175.391 200.771C172.147 200.189 168.234 201.054 164.889 201.283C166.135 205.657 166.939 210.237 168.035 214.663ZM28.3126 216.564C29.4406 217.064 30.9908 216.795 32.217 216.891C34.1332 217.041 36.069 217.386 37.998 217.325C40.9413 217.232 44.0269 216.861 46.9727 216.525C45.2923 213.507 44.2728 210.649 44.0631 207.189C43.9877 205.946 43.3255 198.238 45.6277 198.568C46.7385 198.727 46.5027 205.308 46.7182 206.521C47.0316 208.28 47.4358 210.081 47.9279 211.802C48.285 213.051 49.4998 214.922 49.1885 216.272C50.6736 216.032 52.1591 215.793 53.6445 215.553C52.4896 213.259 51.646 211.204 51.2135 208.645C51.0045 207.411 51.1378 205.874 50.7325 204.701C50.477 203.962 49.8944 203.267 49.8166 202.647C49.7267 201.932 50.5131 200.175 50.2222 199.54C49.9364 198.915 47.9465 198.337 47.2492 197.993C45.3275 197.045 44.2011 196.805 42.0473 197.35C37.893 198.402 31.3475 199.148 28.2492 201.985C25.1798 204.795 24.0628 214.274 28.3126 216.564ZM209.748 79.5753C210.898 79.446 212.037 79.3661 213.193 79.3067C211.504 76.9394 209.97 74.465 208.569 71.918C207.883 70.6701 207.235 69.4024 206.614 68.121C205.902 66.6506 205.922 65.6906 204.374 65.3983C202.231 64.9939 199.366 65.802 197.161 65.7101C195.458 65.6388 191.634 64.0425 190.262 64.6211C191.513 67.175 190.509 71.1486 190.558 73.8977C190.607 76.6317 190.266 79.2745 189.783 81.9704C192.705 81.9704 196.363 80.9654 199.313 80.5165C202.747 79.9937 206.249 79.9666 209.748 79.5753ZM163.357 219.923C164.483 219.779 165.553 219.735 166.689 219.735C164.129 215.601 162.196 210.977 162.174 206.051C162.172 205.407 162.949 201.704 162.692 201.397C162.19 200.797 160.109 201.27 159.539 201.327C157.208 201.559 154.616 201.542 152.421 202.378C150.906 202.956 150.89 202.607 150.287 204.383C149.931 205.433 149.675 206.632 149.668 207.737C149.653 209.969 150.368 212.577 151.291 214.586C152.171 216.499 153.56 218.551 155.471 219.578C157.673 220.762 160.775 220.058 163.357 219.923ZM186.634 66.3378C186.192 64.6907 186.383 65.0625 184.911 64.8581C184.601 64.8152 181.229 64.8849 181.036 65.0817C180.813 65.3088 180.898 68.6623 180.869 69.0461C180.769 70.3615 180.621 71.6734 180.477 72.9847C179.893 78.3079 178.786 83.461 177.955 88.7404C180.007 87.472 182.973 89.2014 184.726 87.8284C186.111 86.7435 185.904 83.2717 186.007 81.7399C186.353 76.6128 186.471 71.4731 186.634 66.3378ZM260.733 60.1214C260.548 60.4167 260.364 60.712 260.179 61.0073C260.896 61.4649 265.091 56.8101 266.023 55.9773C267.266 54.8684 269.232 53.3877 269.792 51.7664C270.443 49.8823 269.803 46.9079 269.645 44.9597C269.533 43.5654 269.772 41.6371 268.631 40.663C267.58 39.7668 264.993 39.7908 263.749 39.9825C260.017 40.5581 257.772 43.6155 255.888 46.5289C257.801 46.2946 264.546 43.2276 265.329 44.8863C266.467 47.2962 259.384 49.4509 258.683 51.5654C260.133 52.0754 263.331 50.097 262.432 53.3888C262.278 53.8494 262.01 54.2308 261.629 54.533C260.967 54.7666 260.81 55.2066 261.158 55.8535C260.862 57.1428 260.922 58.7741 260.733 60.1214ZM303.694 176.817C303.714 177.598 303.786 178.345 304.427 178.897C305.849 174.411 306.294 169.923 306.883 165.258C307.472 160.592 308.1 155.81 308.193 151.148C308.298 145.923 307.802 140.24 306.954 135.077C306.29 131.042 305.776 126.076 303.361 122.641C304.733 131.542 304.306 139.981 303.381 148.913C302.89 153.656 302.197 158.363 301.879 163.126C301.795 164.384 301.768 165.657 301.659 166.913C301.594 167.653 300.858 169.055 300.852 169.418C300.816 171.434 302.983 174.965 303.694 176.817ZM230.71 169.884C231.851 172.499 233.148 175.074 233.832 177.855C234.554 180.791 234.243 183.525 234.359 186.5C234.551 191.436 234.154 196.343 234.223 201.286C234.282 205.499 234.12 209.607 234.163 213.776C234.189 216.413 234.044 219.04 234.053 221.675C234.053 221.667 234.159 224.041 233.977 224.161C233.16 224.702 232.267 223.934 232.016 223.195L229.594 225.924C230.864 225.607 232.425 224.943 233.73 224.884C234.23 224.701 234.727 224.696 235.223 224.869C235.715 225.165 236.08 225.578 236.317 226.109C239.737 226.834 241.789 223.802 242.403 221.092C243.735 215.21 243.255 209.404 243.159 203.466C242.949 190.567 245.007 177.745 244.812 164.844C244.775 162.348 244.679 159.881 245.056 157.39C245.755 152.761 246.787 156.998 246.952 159.182C247.45 165.747 248.317 172.52 247.841 179.125C247.411 185.076 247.451 191.082 247.154 197.051C246.837 203.396 246.328 209.605 246.621 215.955C248.331 215.737 253.833 215.412 254.406 217.806C254.905 219.893 252.895 219.121 251.85 219.033C250.157 218.89 248.503 219.285 246.652 218.955C246.788 221.763 247.177 225.528 244.658 227.424C243.419 228.356 241.367 229.198 239.919 229.748C238.501 230.287 236.098 231.481 234.62 231.416C233.574 231.369 233.172 230.809 232.024 230.898C230.322 231.032 228.848 232.166 227.043 231.229C223.621 229.452 225.303 224.283 227.464 222.212C228.021 221.677 228.648 221.093 229.395 220.833C229.751 220.709 231.238 220.859 231.409 220.673C232.042 219.989 231.252 215.986 231.168 215.226C230.724 211.242 230.24 207.172 230.058 203.169C229.887 199.406 229.697 195.635 229.566 191.87C229.538 191.051 229.903 189.365 229.558 188.649C228.985 187.458 226.47 186.7 225.379 186.145C226.351 195.633 227.78 205.831 224.26 214.868C223.561 216.663 222.777 219.224 221.005 220.222C219.334 221.163 215.4 221.031 213.399 221.142C211.247 221.262 209.14 220.762 207.955 218.749C207.022 217.165 207.581 215.265 209.497 214.574C210.644 214.161 210.867 214.427 211.872 214.918C212.09 215.271 212.243 215.65 212.331 216.055H213.103C214.15 216.52 218.334 217.041 219.484 216.298C220.818 215.439 221.107 213.115 221.676 211.735C222.732 209.17 223.011 207.088 223.395 204.346C223.994 200.054 223.387 195.078 223.398 190.607C223.401 189.348 223.407 188.088 223.409 186.829C223.411 184.927 223.577 184.939 222.488 183.57C220.846 181.506 218.974 179.398 217.217 177.42C218.169 183.199 217.779 189.283 217.401 195.041C217.189 198.276 216.75 201.57 216.548 204.762C216.488 205.721 217.179 208.365 216.061 208.789C214.927 209.219 213.515 207.213 213.056 206.488C210.555 211.46 207.57 216.255 202.409 218.828C199.756 220.15 196.993 220.747 194.097 221.265C191.414 221.746 188.935 222.623 186.29 223.036C180.816 223.892 175.774 224.013 170.265 223.826C165.068 223.65 160.092 224.606 154.911 223.402C152.889 222.933 150.846 222.07 149.464 220.528C148.71 219.687 148.377 218.363 147.616 217.587C147.444 216.584 146.852 216.274 145.837 216.658C145.2 216.687 144.566 216.666 143.934 216.595C138.738 216.324 132.963 216.627 127.928 215.148C126.017 214.587 123.884 213.663 124.837 211.28C125.671 209.198 127.97 209.83 129.856 210.012C135.333 210.541 140.724 211.505 146.281 211.99C146.102 209.099 146.256 206.148 147.394 203.443C143.539 202.961 139.543 202.235 135.876 201.009C134.743 200.63 133.616 200.237 132.492 199.832C130.641 199.165 131.026 198.992 129.953 200.156C128.605 201.619 127.78 204.67 126.804 206.438C125.705 208.426 124.651 210.392 123.725 212.468C122.848 214.433 122.195 217.064 120.86 218.757C117.922 222.481 111.139 222.804 107.146 221.341C105.191 220.624 104.485 220.512 103.3 218.766C102.001 216.854 101.679 216.742 99.2866 216.482C94.967 216.013 90.8901 214.933 86.8435 213.442C82.5682 211.866 78.1783 210.638 73.9154 208.937C69.9249 207.345 66.0681 205.743 61.9392 204.5C61.4492 207.602 63.4794 211.1 63.4794 214.298C65.8818 214.059 68.122 213.849 70.5034 213.468C71.3526 213.332 76.7025 212.137 77.2245 212.842C79.4003 215.784 69.5 217.167 67.9526 217.556C62.9939 218.803 57.9373 219.961 52.9472 220.924C47.8538 221.908 42.8885 222.887 37.718 223.064C28.9689 223.362 16.901 222.859 17.3187 211.409C17.4826 206.922 19.3382 202.053 22.889 199.127C25.0982 197.306 27.8532 196.305 30.5542 195.481C31.552 195.177 36.809 194.465 36.9688 194.074C35.4874 193.016 32.9556 192.74 31.1981 191.926C29.5225 191.148 27.7544 190.859 26.0393 190.075C22.6121 188.51 19.302 186.597 16.1331 184.662C13.6128 183.123 11.0648 181.423 8.74465 179.593C6.90108 178.14 5.13431 176.742 3.66056 175.08C2.88925 174.211 1.52397 173.441 0.906233 172.692C-1.26307 170.062 1.02468 164.829 1.94853 161.768C3.29798 157.293 5.09884 152.531 7.75469 148.655C10.197 145.089 12.92 142.688 17.3011 141.853C21.3446 141.082 25.4105 140.838 29.546 140.621C28.8511 137.988 27.8728 136.13 28.1211 133.242C28.3553 130.518 29.736 127.811 30.8197 125.33C32.8343 120.719 34.7351 116.205 37.4904 111.959C39.0048 109.626 40.7058 107.411 42.359 105.175C42.6255 104.814 44.2824 103.165 44.2191 102.701C44.156 102.239 42.4922 100.833 42.2374 100.511C40.5264 98.3476 39.3436 96.018 41.3528 93.7025C42.4003 92.4952 45.48 90.0572 46.9624 91.591C48.5652 88.3648 51.3688 86.1652 53.5515 83.4206C56.2728 79.9982 58.8712 76.5237 61.4185 72.939C63.9549 69.3699 66.0267 65.5355 69.3888 62.6592C73.1355 59.4539 76.6625 59.7311 81.2642 61.1013C81.5269 59.3332 81.8923 59.5685 83.6091 58.9782C84.9086 58.5313 86.1717 58.001 87.4495 57.4964C88.8075 56.9597 90.1821 56.6551 91.5705 56.2332C93.4199 55.6714 93.6978 55.8549 93.9984 53.4625C94.362 50.5718 93.12 47.5153 92.3191 44.7923C91.9238 43.4488 91.649 41.7764 90.7596 40.8726C89.9548 40.0552 88.5283 39.6831 87.6482 38.7793C80.0652 30.993 79.9458 14.368 88.0231 7.13153C89.593 5.72491 90.8877 3.83262 92.8418 2.88287C94.9873 1.83982 97.8174 0.996403 100.181 0.504893C105.051 -0.507624 110.514 -0.186239 114.365 3.22449C116.264 4.90653 117.422 7.58016 118.069 9.96843C118.687 12.2497 118.555 16.1056 116.211 12.58C114.732 10.3564 113.448 8.08848 110.946 6.9885C108.71 6.00582 105.979 5.47521 103.543 5.68375C97.8015 6.17492 93.1489 7.85421 89.1746 12.0871C84.7802 16.7672 84.5567 24.2395 85.504 30.1907C86.3387 28.4305 86.9041 25.6433 89.2441 25.3072C91.1945 25.027 94.269 27.5075 93.2222 29.643C88.4728 28.437 87.0838 35.5912 91.1907 36.022C92.4341 36.1523 94.0087 33.9475 95.1536 34.461C97.2947 35.4207 94.4253 38.7278 93.8596 39.8168C93.559 40.001 93.2584 40.1852 92.9578 40.3698C93.2539 41.0551 93.5528 41.7393 93.8548 42.4222C94.2208 43.2931 94.5693 44.166 94.8909 45.0544C95.6736 47.2162 96.4851 49.4454 96.9569 51.6975C97.4362 53.9873 97.6852 56.6613 96.5519 58.8125C95.3065 61.1771 94.1333 60.8862 93.1764 58.6369C90.6718 60.2095 88.1533 61.8864 85.2089 62.5069C88.2965 67.6669 92.2936 72.1028 98.3036 73.7259C103.397 75.1016 109.809 75.0512 114.669 72.7754C119.713 70.4139 122.488 64.8945 121.888 59.4031C121.693 57.6247 120.654 51.4474 123.126 55.9159C124.482 58.3666 124.581 62.3419 124.272 65.0293C122.794 77.884 109.712 82.6931 98.432 79.5986C92.6455 78.0109 88.4756 73.7612 85.3711 68.7586C84.6469 67.5921 83.9845 66.3882 83.3374 65.1778C83.0788 64.6942 82.8512 64.0188 82.5062 63.5945C81.154 61.932 82.4825 62.8585 81.0469 62.6503C78.8253 62.3285 75.3293 64.0233 73.6796 65.3661C69.2036 69.009 66.7244 74.8365 63.289 79.4278C59.6314 84.3154 54.9864 88.6656 50.3269 92.5655C55.5976 97.9433 60.8679 103.32 66.1387 108.698C67.2274 107.497 69.2972 104.753 69.5868 103.148C69.7566 102.207 68.9946 99.1108 71.3381 100.489C72.9203 101.42 73.5205 105.403 74.0139 107.033C74.7763 109.549 76.0599 111.92 76.8898 114.41C78.429 119.032 80.3252 123.613 81.9019 128.267C82.5431 130.16 84.3711 132.508 82.6147 134.111C79.9451 136.545 79.1514 131.752 78.4445 129.921C77.46 131.284 77.5878 133.495 77.0802 135.085C76.7703 136.056 75.8265 137.568 75.8578 138.525C75.9112 140.162 77.4025 140.649 78.7464 141.563C81.2467 143.264 83.8123 144.925 86.1024 146.907C87.058 147.733 87.9371 148.569 88.6343 149.633C89.2431 150.561 89.4263 152.654 90.0991 153.3C90.9792 154.145 94.2325 153.556 95.9504 153.74C98.819 154.047 101.726 155.064 104.511 155.794C109.439 157.086 114.508 158.946 119.669 159.636C124.738 160.314 129.494 159.977 134.546 159.074C137.305 158.581 140.269 157.992 142.787 156.67C145.687 155.148 148.259 152.712 150.968 150.873C152.181 150.05 153.421 149.272 154.661 148.492C156.318 147.449 155.885 147.675 155.993 146.018C156.118 144.1 156.921 140.438 155.635 138.732C155.098 138.019 153.451 137.498 152.675 136.98C151.547 136.226 150.536 135.35 149.327 134.743C148.008 134.081 147.969 134.605 147.357 132.98C146.8 131.505 146.433 129.959 145.923 128.468C143.586 121.649 142.982 114.723 142.014 107.602C141.564 104.294 140.46 99.7934 141.71 96.5713C143.449 92.0901 144.903 98.3573 145.27 99.9635C146.929 97.1324 147.882 93.9837 149.609 91.1887C150.615 89.5591 151.108 88.7263 151.675 86.9407C151.904 86.2177 151.996 85.6171 152.482 85.0165C153.509 83.7461 153.661 84.4701 154.729 84.4389C158.088 84.3408 161.39 84.4269 164.753 84.582C166.611 84.6677 168.47 84.713 170.342 84.7061C171.253 84.7027 172.176 84.6584 173.087 84.7106C173.578 84.7054 174.067 84.7418 174.553 84.82C175.557 85.2865 175.939 84.8845 175.702 83.6137C176.576 81.7934 176.518 78.8889 176.827 76.903C177.138 74.9041 177.427 72.9017 177.687 70.8951C177.826 69.8226 178.993 65.7756 178.374 64.8945C177.76 64.0209 174.56 64.2167 173.614 64.06C167.321 63.018 161.467 60.4349 155.581 58.3186C152.683 57.2769 149.933 55.8703 147.153 54.5923C145.706 53.9269 144.339 52.5567 142.814 52.13C140.889 51.5915 138.334 52.4524 136.416 52.7765C132.761 53.3942 129.236 53.9351 125.527 54.1361C124.217 54.2071 121.725 54.5731 120.543 53.6762C118.168 51.8748 120.872 50.8215 122.424 50.594C129.289 49.5884 136.133 49.0104 143.05 48.5906C143.374 48.5711 144.562 48.3306 144.958 48.4548C145.858 48.7381 145.495 49.0667 146.035 49.3589C147.035 49.9002 148.176 50.2987 149.445 50.6345C153.068 51.5928 156.716 53.2008 160.35 54.4644C166.891 56.7377 174.705 60.3625 181.246 59.7252C182.86 59.5681 184.187 59.3671 185.875 59.5301C187.851 59.7211 189.005 60.7309 190.523 61.0245C192.558 61.4176 195.468 61.1222 197.609 61.1977C199.651 61.2697 201.694 61.364 203.737 61.364C201.943 57.7708 200.851 54.3972 199.842 50.5381C199.293 48.4335 198.465 46.522 198.824 44.3056C198.993 43.2595 199.413 42.2765 199.87 41.3315C200.561 39.905 200.757 40.2034 201.003 38.6236C201.34 36.4493 200.856 34.1568 201.121 31.976C201.393 29.738 203.091 27.7431 203.28 25.6035C203.381 24.4651 202.742 23.536 202.933 22.3081C203.104 21.2098 203.757 20.0584 204.344 19.1337C205.709 16.9789 207.372 15.7571 209.68 14.8794C211.535 14.1739 213.903 13.5266 215.777 14.6692C217.69 15.8346 217.552 18.1804 218.468 19.892C220.438 23.5723 224.984 26.8613 228.608 28.7409C231.937 30.4675 235.523 31.5583 239.092 32.6843C241.265 33.3696 243.498 33.8584 245.633 34.6414C247.17 35.2053 249.676 36.5728 251.241 35.7421C252.605 35.018 254.196 32.8085 255.546 31.7826C257.125 30.5824 259.231 29.4111 261.22 30.4566C263.208 31.5017 263.045 35.3542 264.592 36.0786C265.131 36.331 266.731 35.5915 267.466 35.7081C268.653 35.8961 269.47 36.6277 270.181 37.5284C272.838 40.8942 273.661 46.2329 273.777 50.3821C273.835 52.4544 273.785 55.032 272.514 56.7916C271.032 58.8441 268.227 58.8948 266.325 60.3392C264.803 61.4944 263.725 63.3829 262.181 64.6139C261.229 65.3726 260.862 64.7899 260.468 65.9722C260.212 66.7411 260.73 68.2414 260.883 68.9854C261.829 73.5753 263.6 77.8089 265.281 82.1814C266.073 84.2417 266.745 86.3024 267.107 88.4859C267.344 89.9186 267.07 91.1712 267.185 92.5497C267.266 93.531 267.685 94.3785 267.593 95.3849C267.398 97.5159 266.236 99.3982 265.497 101.273C264.655 103.41 265.812 107.11 266.66 109.32C268.693 114.614 271.552 119.963 274.092 125.05C276.587 130.047 278.443 135.369 281.35 140.17C284.173 144.831 287.495 149.396 290.707 153.806C292.494 156.258 294.39 158.591 296.009 161.164C296.363 161.726 298.78 166.391 299.407 166.23C298.638 158.089 299.415 149.622 299.759 141.487C300.189 131.303 298.887 122.078 296.01 112.357C295.338 110.084 294.738 107.759 294.265 105.436C293.934 103.81 292.999 102.474 295.295 103.185C299.096 104.362 302.441 111.51 304.374 114.621C308.702 121.59 312.317 130.883 312.802 139.056C313.278 147.079 312.868 154.755 311.861 162.659C311.364 166.559 310.562 170.906 309.335 174.635C308.705 176.554 307.947 178.541 307.107 180.379C306.752 181.155 305.974 182.031 305.839 182.884C305.626 184.236 306.621 186.061 306.87 187.396C307.683 191.766 307.87 196.295 307.593 200.73C307.445 203.109 307.115 205.236 306.336 207.473C305.343 210.323 305.804 212.5 306.217 215.438C306.66 218.582 307.083 225.728 303.801 227.514C303.57 227.491 303.337 227.467 303.105 227.443C302.519 226.77 301.998 226.809 301.543 227.563C300.695 227.839 299.866 228.549 298.972 228.855C296.897 229.564 294.659 229.607 292.495 229.919C288.26 230.53 284.039 231.607 279.878 231.738C274.951 231.892 269.812 231.7 264.995 230.84C263.999 230.661 262.835 230.191 261.839 230.101C260.488 229.979 259.539 230.874 258.144 230.663C255.981 230.337 254.615 228.057 254.473 226.19C254.023 220.237 257.338 217.508 262.756 216.451C259.255 211.458 255.225 207.363 254.293 200.951C253.376 194.643 255.365 187.342 258.977 182.288C262.443 177.436 268.359 174.192 274.46 175.423C277.291 175.995 290.649 179.923 288.067 184.379C287.494 182.341 283.973 182.735 282.271 182.441C279.448 181.953 276.626 181.216 273.762 181.368C268.13 181.666 262.686 184.985 259.958 190.009C256.814 195.801 258.249 201.581 262.034 206.526C265.496 211.048 269.064 215.799 273.719 219.064C272.819 220.489 273.144 220.936 271.357 220.681C270.13 220.505 268.982 219.552 267.741 219.315C265.169 218.823 261.121 220.922 259.532 223.021C258.593 224.262 258.628 224.874 260.359 225.638C261.637 226.202 263.649 225.911 265.021 226.033C268.434 226.336 271.913 226.438 275.338 226.426C281.265 226.404 286.778 225.457 292.645 224.844C295.245 224.572 297.964 224.885 300.508 223.932C303.953 222.641 303.109 218.85 302.663 215.779C302.22 212.737 302.671 210.378 303.151 207.365C303.358 206.057 303.747 204.546 303.472 203.229C303.145 201.664 302.56 200.972 302.634 199.226C302.9 193.016 302.118 186.475 300.465 180.481C296.876 167.462 288.112 157.187 280.803 146.122C278.739 142.996 276.569 140.035 274.925 136.65C273.368 133.444 272.296 130.052 270.75 126.837C267.343 119.749 264.11 112.449 262.119 104.825C259.862 105.71 257.431 107.011 255.012 107.323C252.271 107.677 249.341 105.472 247.612 103.531C243.67 99.1033 242.771 93.0988 243.066 87.3935C243.153 85.7046 243.258 84.0023 243.562 82.336C243.759 81.2546 245.036 78.6368 244.745 77.6291C244.434 76.5508 242.619 75.6134 242.062 74.5453C241.352 73.1857 241.27 71.4357 241.308 69.9358C241.343 68.5666 242.102 61.8624 244.281 64.6026C245.53 66.1725 243.705 72.0912 244.972 72.8969C246.112 73.6216 247.682 72.736 248.864 74.393C250.141 76.1838 249.457 78.3909 249.009 80.298C248.084 84.2417 247.215 88.5003 247.239 92.5507C247.26 96.2389 247.922 100.902 251.968 102.393C254.012 103.147 255.563 102.629 257.088 101.225C257.437 100.824 257.793 100.43 258.157 100.042C258.49 99.4713 259.002 99.4003 259.692 99.8297C260.203 99.4257 260.96 96.6337 261.215 96.0098C264.349 88.3611 259.408 79.579 257.597 72.0744C256.49 67.4841 255.524 62.8797 257.766 58.4496C258.129 57.7324 259.129 57.1092 258.529 56.0802C258.371 55.8096 256.861 55.6827 256.504 55.3682C255.339 54.3443 255.582 52.4356 255.582 51.0688C252.889 51.8961 252.113 49.8089 252.463 47.2509C250.454 47.5682 249.059 48.1801 248.315 45.8649C247.656 43.8117 248.652 41.7181 249.313 39.8048C240.018 38.8126 229.98 37.5411 222.572 31.1525C220.746 29.5771 219.227 27.5943 217.961 25.5401C217.733 25.1686 216.656 22.5536 216.298 22.4171C215.238 22.0114 214.348 24.0789 213.405 24.591C212.567 25.0458 211.375 25.2966 210.444 25.5737C209.568 25.8347 206.479 25.8869 205.931 26.34C204.561 27.4732 204.669 34.0247 204.659 35.5452C204.621 40.782 205.795 46.0007 207.965 50.7686C210.009 55.2591 213.137 61.4344 217.225 64.3731C218.258 65.116 219.188 65.5012 220.497 65.4398C221.433 65.3963 222.36 64.7439 223.334 65.0831C225.798 65.942 224.916 67.6484 223.022 68.4551C217.607 70.7621 213.043 65.6906 209.912 62.1474C208.995 66.3512 213.247 71.3256 215.497 74.7555C216.93 76.9414 218.347 79.1294 219.711 81.3599C220.701 82.9798 222.648 85.9714 219.191 84.7202C217.523 93.4398 212.945 101.066 210.607 109.539C208.207 118.237 206.116 128.17 206.116 137.228C207.943 135.961 208.864 130.187 211.322 134.606C211.588 135.084 211.505 135.876 211.855 136.293C212.34 136.871 212.923 136.711 213.666 137.123C214.844 137.775 215.603 139.077 214.551 140.205C215.907 139.891 217.327 140.051 217.619 141.649C217.783 142.545 216.465 146.698 215.481 147.038C212.483 148.071 209.159 142.109 208.347 140.213C206.474 142.085 204.316 143.526 202.59 140.497C201.304 138.24 202.05 134.826 202.232 132.369C202.597 127.419 203.075 122.592 203.792 117.69C205.136 108.499 208.548 100.324 212.739 92.0506C213.893 89.7735 215.171 87.4425 216.202 85.1126C217.756 81.5972 215.324 82.4266 212.947 82.937C208.289 83.9375 203.413 84.7137 198.706 85.068C196.25 85.2528 193.104 85.3629 190.744 86.0702C189.084 86.5675 189.369 86.2242 188.702 87.9947C188.404 88.7871 188.068 89.6298 187.542 90.3082C184.86 93.7697 177.914 93.1904 174.078 92.9325C174.311 91.4727 174.54 90.0122 174.781 88.5538C171.828 89.2449 168.321 89.7262 165.28 89.6908C163.643 89.6723 161.901 89.4237 160.268 89.2882C159.064 89.1884 156.781 88.3381 155.648 88.6687C154.334 89.0525 152.347 93.7848 151.595 95.3108C150.185 98.1765 147.664 101.36 146.774 104.377C145.985 107.052 147.595 111.668 148.101 114.33C148.832 118.18 149.498 122.036 150.723 125.768C151.612 128.474 152.635 132.204 155.363 133.554C158.08 134.899 160.033 135.655 162.975 135.382C168.154 134.899 173.664 135.691 178.778 136.694C184.043 137.727 188.865 138.192 193.865 140.033C205.206 144.208 212.428 157.07 208.152 168.852C205.692 175.629 201.641 180.665 195.698 184.858C192.669 186.994 189.091 188.727 185.771 190.374C184.247 191.13 182.748 192.047 181.195 192.719C180.059 193.209 178.108 194.339 176.875 194.463C178.244 195.112 179.455 194.504 180.88 194.303C182.895 194.017 184.953 193.956 186.976 193.707C190.124 193.319 193.226 193.026 196.376 192.637C199.064 192.304 202.097 192.186 204.769 192.569C206.059 192.754 208.002 193.119 209.151 193.738C210.055 194.225 210.884 195.348 211.856 195.904C212.925 191.53 212.425 186.139 212.475 181.645C212.516 177.976 212.68 174.388 213.027 170.737C213.415 166.653 210.907 162.008 209.981 158.008C209.114 154.265 206.805 149.52 207.655 145.612C208.727 140.686 211.532 149.535 211.918 150.801C213.125 154.759 214.527 158.623 215.865 162.535C217.457 167.189 219.061 171.697 221.379 176.058C223.308 179.686 225.526 183.943 229.491 185.713C229.163 180.377 228.8 175.436 226.573 170.516C224.461 165.85 221.241 161.702 219.833 156.702C219.133 154.218 219.031 151.678 218.996 149.112C218.973 147.385 219.052 145.065 220.911 146.926C222.385 148.402 222.671 153.11 223.316 155.097C223.627 156.054 224.058 156.932 224.401 157.862C224.556 158.281 225.597 160.322 225.597 160.595C226.67 163.821 229.043 166.915 230.71 169.884Z" fill="black"/>
<path fill-rule="evenodd" clip-rule="evenodd" d="M116.887 52.2812C116.99 53.5308 117.717 56.7693 116.785 57.7582C115.55 59.0701 114.965 57.3826 114.431 56.0521C113.315 53.2718 112.76 47.8878 114.966 45.5709C117.268 43.1514 121.819 43.0863 124.276 40.6768C125.263 39.7088 125.168 39.9108 125.082 38.3976C125.033 37.5432 124.478 36.4079 124.21 35.6399C123.513 33.6444 122.748 31.6728 122.019 29.689C120.745 30.2676 118.911 32.0525 117.655 30.5564C116.495 29.1731 118.425 26.9066 119.77 26.5022C119.068 24.9735 115.761 25.2561 115.131 23.0105C114.583 21.0589 116.156 21.8344 116.5 21.0658C116.905 20.1613 116.076 18.9385 116.502 18.1051C117.983 15.2113 119.623 20.5321 120.361 21.4818C121.733 23.2482 124.123 23.6341 124.334 26.306C124.464 27.951 124.339 28.7159 125.02 30.3314C125.646 31.8186 126.391 33.2448 126.916 34.7752C127.707 37.0811 128.927 41.2777 127.381 43.5106C126.077 45.3939 122.912 46.8297 120.853 47.6351C119.822 48.0381 118.393 48.2837 117.559 49.0688C116.471 50.0929 116.809 50.7223 116.887 52.2812Z" fill="black"/>
<path fill-rule="evenodd" clip-rule="evenodd" d="M223.837 122.011C223.602 121.642 223.367 121.274 223.132 120.905C221.503 122.638 219.699 123.351 218.053 121.149C216.357 118.883 216.994 115.484 217.653 113.009C217.993 111.735 219.708 106.712 220.807 110.538C221.05 111.383 220.239 113.263 220.092 114.09C219.804 115.711 219.576 117.267 219.78 118.918C221.689 117.216 222.625 112.899 224.563 117.381C225.266 119.007 225.343 121.684 227.214 119.215C228.213 117.896 228.277 115.462 228.744 113.909C231.934 114.669 231.353 119.367 230.288 121.656C228.593 125.301 226.286 124.127 223.837 122.011Z" fill="black"/>
<path fill-rule="evenodd" clip-rule="evenodd" d="M235.004 40.2442C236.139 42.129 233.993 45.5757 233.604 47.5109C235.504 47.2917 240.208 42.7255 241.531 43.4783C244.287 45.0451 238.466 50.5097 237.348 51.3106C228.409 57.7102 230.02 39.1985 235.004 40.2442Z" fill="black"/>
<path fill-rule="evenodd" clip-rule="evenodd" d="M223.796 61.233C227.135 60.3069 231.638 66.2771 229.472 69.2337C227.918 71.3544 225.998 70.1416 225.511 68.2747C225.263 67.3225 225.483 66.1752 225.159 65.1133C224.759 63.8058 224.224 62.5323 223.796 61.233Z" fill="black"/>
<path fill-rule="evenodd" clip-rule="evenodd" d="M121.084 35.4993C123.624 37.6255 118.434 42.8091 115.833 38.7502C115.117 37.6337 114.987 36.6147 116.048 36.2024C116.584 35.9946 117.847 36.6754 118.603 36.555C119.432 36.4229 120.333 35.8423 121.084 35.4993Z" fill="black"/>
<path fill-rule="evenodd" clip-rule="evenodd" d="M112.357 26.9972C111.372 25.7727 108.602 18.2405 112.034 19.9181C113.758 20.7605 115.182 27.1995 112.357 26.9972Z" fill="black"/>
<path fill-rule="evenodd" clip-rule="evenodd" d="M225.671 188.997C225.573 188.047 225.476 187.096 225.378 186.145C226.645 186.789 229.188 187.424 229.629 188.865C230.457 191.572 226.61 189.407 225.671 188.997Z" fill="black"/>
<path fill-rule="evenodd" clip-rule="evenodd" d="M262.455 74.3467C261.7 73.3311 259.353 64.8595 261.389 65.0533C261.746 68.1265 261.819 71.3181 262.455 74.3467Z" fill="black"/>
<path fill-rule="evenodd" clip-rule="evenodd" d="M230.71 169.884C229.043 166.915 226.67 163.821 225.597 160.595C228.112 162.624 230.078 166.77 230.71 169.884Z" fill="black"/>
<path fill-rule="evenodd" clip-rule="evenodd" d="M299.102 163.003C299.203 164.079 299.305 165.154 299.407 166.23C297.896 166.618 299.009 163.358 299.102 163.003Z" fill="black"/>
<path fill-rule="evenodd" clip-rule="evenodd" d="M225.6 160.6C224.885 159.825 224.578 158.871 224.401 157.862C224.801 158.774 225.2 159.687 225.6 160.6Z" fill="black"/>
<path fill-rule="evenodd" clip-rule="evenodd" d="M234.249 209.305C234.275 208.348 234.302 207.391 234.329 206.436C234.302 207.393 234.275 208.349 234.249 209.305Z" fill="black"/>
<path fill-rule="evenodd" clip-rule="evenodd" d="M121.266 53.9787C121.906 54.058 122.546 54.1372 123.186 54.2164C122.681 54.4521 121.491 54.7652 121.266 53.9787Z" fill="black"/>
<path fill-rule="evenodd" clip-rule="evenodd" d="M248.879 219.353C249.545 219.253 250.213 219.024 250.867 219.391C250.203 219.379 249.541 219.366 248.879 219.353Z" fill="black"/>
<path fill-rule="evenodd" clip-rule="evenodd" d="M229.854 197.727C229.863 198.436 229.872 199.144 229.88 199.851C229.87 199.141 229.862 198.434 229.854 197.727Z" fill="black"/>
<path fill-rule="evenodd" clip-rule="evenodd" d="M243.612 186.694C243.57 187.451 243.527 188.206 243.485 188.961C243.528 188.204 243.57 187.449 243.612 186.694Z" fill="black"/>
<path fill-rule="evenodd" clip-rule="evenodd" d="M234.554 189.653C234.517 188.995 234.481 188.337 234.445 187.681C234.481 188.339 234.518 188.996 234.554 189.653Z" fill="black"/>
<path fill-rule="evenodd" clip-rule="evenodd" d="M254.339 195.457C254.303 196.043 254.267 196.629 254.231 197.213C254.267 196.627 254.303 196.042 254.339 195.457Z" fill="black"/>
<path fill-rule="evenodd" clip-rule="evenodd" d="M134.793 210.26C134.145 210.585 133.498 210.617 132.852 210.256C133.499 210.257 134.146 210.259 134.793 210.26Z" fill="black"/>
<path fill-rule="evenodd" clip-rule="evenodd" d="M201.087 33.2043C201.096 33.7836 201.105 34.3629 201.114 34.9398C201.104 34.3598 201.095 33.7822 201.087 33.2043Z" fill="black"/>
<path fill-rule="evenodd" clip-rule="evenodd" d="M136.767 49.0104C136.104 49.0605 135.44 49.1102 134.777 49.1603C135.441 49.1102 136.104 49.0605 136.767 49.0104Z" fill="black"/>
<path fill-rule="evenodd" clip-rule="evenodd" d="M273.782 51.2399C273.778 50.6681 273.775 50.0963 273.772 49.5256C274.077 50.0963 274.082 50.6674 273.782 51.2399Z" fill="black"/>
<path fill-rule="evenodd" clip-rule="evenodd" d="M116.888 52.2812C116.857 51.6738 116.827 51.0667 116.797 50.4603C116.828 51.0681 116.858 51.6745 116.888 52.2812Z" fill="black"/>
<path fill-rule="evenodd" clip-rule="evenodd" d="M279.878 231.738C280.326 231.741 280.774 231.744 281.218 231.747C280.768 231.744 280.323 231.741 279.878 231.738Z" fill="black"/>
<path fill-rule="evenodd" clip-rule="evenodd" d="M103.552 0.102295C102.963 0.152372 102.374 0.202449 101.784 0.252183C102.374 0.202449 102.963 0.152372 103.552 0.102295Z" fill="black"/>
<path fill-rule="evenodd" clip-rule="evenodd" d="M161.661 224.18C162.04 224.18 162.42 224.18 162.796 224.18C162.414 224.18 162.038 224.18 161.661 224.18Z" fill="black"/>
<path fill-rule="evenodd" clip-rule="evenodd" d="M220.497 65.4398C219.921 65.3825 219.345 65.3249 218.769 65.2673C219.345 65.3249 219.921 65.3825 220.497 65.4398Z" fill="black"/>
<path fill-rule="evenodd" clip-rule="evenodd" d="M246.682 223.179C246.718 222.706 246.753 222.233 246.789 221.762C246.753 222.236 246.718 222.707 246.682 223.179Z" fill="black"/>
<path fill-rule="evenodd" clip-rule="evenodd" d="M184.325 59.3839C183.758 59.3788 183.191 59.374 182.624 59.3692C183.194 59.0406 183.76 59.1346 184.325 59.3839Z" fill="black"/>
<path fill-rule="evenodd" clip-rule="evenodd" d="M108.652 0.260363C108.081 0.242185 107.477 0.538873 106.95 0.0874939C107.518 0.145117 108.085 0.20274 108.652 0.260363Z" fill="black"/>
<path fill-rule="evenodd" clip-rule="evenodd" d="M93.2139 56.0833C92.6661 56.1334 92.1179 56.1835 91.5704 56.2332C92.1186 56.1832 92.6661 56.1334 93.2139 56.0833Z" fill="black"/>
<path fill-rule="evenodd" clip-rule="evenodd" d="M127.73 209.769C127.153 209.829 126.576 209.889 125.999 209.949C126.576 209.889 127.154 209.829 127.73 209.769Z" fill="black"/>
<path fill-rule="evenodd" clip-rule="evenodd" d="M142.096 48.664C141.534 48.676 140.971 48.688 140.408 48.7C140.966 48.4774 141.525 48.2675 142.096 48.664Z" fill="black"/>
<path fill-rule="evenodd" clip-rule="evenodd" d="M234.228 202.015C234.225 201.529 234.221 201.043 234.218 200.558C234.221 201.045 234.225 201.53 234.228 202.015Z" fill="black"/>
<path fill-rule="evenodd" clip-rule="evenodd" d="M299.309 160.801C299.248 161.389 299.187 161.976 299.127 162.564C299.187 161.976 299.248 161.389 299.309 160.801Z" fill="black"/>
<path fill-rule="evenodd" clip-rule="evenodd" d="M226.282 198.668C226.24 198.168 226.198 197.668 226.156 197.169C226.198 197.669 226.24 198.169 226.282 198.668Z" fill="black"/>
<path fill-rule="evenodd" clip-rule="evenodd" d="M36.9688 194.074C36.8658 194.572 36.5008 194.671 35.8738 194.368L36.9688 194.074Z" fill="black"/>
<path fill-rule="evenodd" clip-rule="evenodd" d="M247.292 194.295C247.258 193.861 247.224 193.426 247.191 192.993C247.225 193.428 247.258 193.861 247.292 194.295Z" fill="black"/>
<path fill-rule="evenodd" clip-rule="evenodd" d="M129.369 49.7112C128.896 49.7753 128.422 49.8391 127.949 49.9033C128.422 49.8391 128.896 49.7753 129.369 49.7112Z" fill="black"/>
<path fill-rule="evenodd" clip-rule="evenodd" d="M229.569 190.591C229.568 191.018 229.567 191.445 229.566 191.87C229.567 191.443 229.568 191.017 229.569 190.591Z" fill="black"/>
<path fill-rule="evenodd" clip-rule="evenodd" d="M201.001 37.4146C201.002 37.8183 201.002 38.2216 201.003 38.6233C201.002 38.2192 201.002 37.8169 201.001 37.4146Z" fill="black"/>
<path fill-rule="evenodd" clip-rule="evenodd" d="M28.2621 131.967C28.215 132.392 28.1679 132.818 28.1211 133.241C28.1682 132.815 28.215 132.391 28.2621 131.967Z" fill="black"/>
<path fill-rule="evenodd" clip-rule="evenodd" d="M311.97 161.207C311.945 160.807 311.92 160.406 311.895 160.008C311.92 160.409 311.945 160.808 311.97 161.207Z" fill="black"/>
<path fill-rule="evenodd" clip-rule="evenodd" d="M67.3658 214.081C66.8765 214.073 66.3872 214.065 65.8979 214.057C66.3931 213.719 66.881 213.792 67.3658 214.081Z" fill="black"/>
<path fill-rule="evenodd" clip-rule="evenodd" d="M124.346 26.9076C124.338 26.5059 124.33 26.1043 124.322 25.704C124.574 26.1015 124.654 26.5008 124.346 26.9076Z" fill="black"/>
<path fill-rule="evenodd" clip-rule="evenodd" d="M85.2778 21.8135C85.3121 21.4173 85.3464 21.0211 85.3804 20.6274C85.3461 21.0242 85.3121 21.4187 85.2778 21.8135Z" fill="black"/>
<path fill-rule="evenodd" clip-rule="evenodd" d="M247.003 160.492C246.986 160.055 246.969 159.618 246.953 159.182C246.97 159.619 246.986 160.056 247.003 160.492Z" fill="black"/>
<path fill-rule="evenodd" clip-rule="evenodd" d="M243.854 183.049C243.842 183.46 243.829 183.872 243.816 184.282C243.828 183.869 243.841 183.459 243.854 183.049Z" fill="black"/>
<path fill-rule="evenodd" clip-rule="evenodd" d="M187.534 222.762C187.841 222.761 188.147 222.76 188.45 222.761C188.143 222.762 187.839 222.762 187.534 222.762Z" fill="black"/>
<path fill-rule="evenodd" clip-rule="evenodd" d="M38.3364 222.97C38.6425 222.978 38.9483 222.987 39.2506 222.995C38.9435 222.987 38.6398 222.979 38.3364 222.97Z" fill="black"/>
<path fill-rule="evenodd" clip-rule="evenodd" d="M223.409 186.829C220.424 184.532 217.822 181.097 217.217 177.42C218.5 178.864 219.579 180.476 220.863 181.919C221.373 182.492 221.999 182.986 222.488 183.57C223.605 184.902 223.409 184.961 223.409 186.829Z" fill="black"/>
<path fill-rule="evenodd" clip-rule="evenodd" d="M212.924 171.302C211.492 168.016 210.249 164.029 210.498 160.403C211.486 163.695 213.779 167.831 212.924 171.302Z" fill="black"/>
<path fill-rule="evenodd" clip-rule="evenodd" d="M217.73 190.629C217.706 191.583 217.681 192.537 217.658 193.489C217.683 192.534 217.707 191.581 217.73 190.629Z" fill="black"/>
<path fill-rule="evenodd" clip-rule="evenodd" d="M28.3126 216.564C29.2916 216.622 30.2708 216.68 31.2498 216.738C30.2664 216.751 29.2699 216.988 28.3126 216.564Z" fill="black"/>
<path fill-rule="evenodd" clip-rule="evenodd" d="M217.725 187.477C217.729 188.29 217.732 189.104 217.736 189.916C217.732 189.101 217.729 188.289 217.725 187.477Z" fill="black"/>
<path fill-rule="evenodd" clip-rule="evenodd" d="M177.502 93.1376C176.95 93.1091 176.399 93.0803 175.852 93.0518C176.405 93.0803 176.953 93.1091 177.502 93.1376Z" fill="black"/>
<path fill-rule="evenodd" clip-rule="evenodd" d="M186.467 72.8999C186.465 72.2397 186.463 71.5794 186.461 70.9205C186.463 71.5811 186.465 72.2407 186.467 72.8999Z" fill="black"/>
<path fill-rule="evenodd" clip-rule="evenodd" d="M174.631 89.4631C174.606 88.9987 174.358 88.7648 173.886 88.7617C174.833 88.252 175.081 88.4859 174.631 89.4631Z" fill="black"/>
<path fill-rule="evenodd" clip-rule="evenodd" d="M202.711 126.195C202.749 125.608 202.786 125.02 202.823 124.434C202.786 125.022 202.749 125.609 202.711 126.195Z" fill="black"/>
<path fill-rule="evenodd" clip-rule="evenodd" d="M42.2119 216.979C42.8723 216.933 43.5328 216.887 44.1932 216.842C43.5324 216.887 42.8723 216.933 42.2119 216.979Z" fill="black"/>
<path fill-rule="evenodd" clip-rule="evenodd" d="M180.922 137.211L182.887 137.197C182.232 137.202 181.577 137.206 180.922 137.211Z" fill="black"/>
<path fill-rule="evenodd" clip-rule="evenodd" d="M199.68 65.6127C199.223 65.6165 198.766 65.6203 198.313 65.6237C198.772 65.6199 199.226 65.6165 199.68 65.6127Z" fill="black"/>
<path fill-rule="evenodd" clip-rule="evenodd" d="M294.945 224.597C295.518 224.594 296.091 224.592 296.664 224.59C296.093 224.949 295.52 224.939 294.945 224.597Z" fill="black"/>
<path fill-rule="evenodd" clip-rule="evenodd" d="M54.4213 145.606C54.0329 145.617 53.6445 145.628 53.2599 145.639C53.6497 145.628 54.0353 145.617 54.4213 145.606Z" fill="black"/>
<path fill-rule="evenodd" clip-rule="evenodd" d="M260.733 60.1214C261.101 60.4747 260.617 61.2869 260.179 61.007C260.364 60.7117 260.549 60.4167 260.733 60.1214Z" fill="black"/>
<path fill-rule="evenodd" clip-rule="evenodd" d="M81.155 181.369C81.1712 180.869 81.1877 180.369 81.2039 179.87C81.1874 180.37 81.1712 180.869 81.155 181.369Z" fill="black"/>
<path fill-rule="evenodd" clip-rule="evenodd" d="M212.475 181.645C212.502 181.123 212.528 180.602 212.554 180.081C212.528 180.603 212.501 181.124 212.475 181.645Z" fill="black"/>
<path fill-rule="evenodd" clip-rule="evenodd" d="M304.119 127.308C304.141 127.83 304.163 128.352 304.185 128.872C304.163 128.35 304.141 127.829 304.119 127.308Z" fill="black"/>
<path fill-rule="evenodd" clip-rule="evenodd" d="M127.154 186.429C127.74 186.479 128.327 186.529 128.913 186.578C128.327 186.529 127.74 186.479 127.154 186.429Z" fill="black"/>
<path fill-rule="evenodd" clip-rule="evenodd" d="M207.612 146.389C207.641 145.87 207.67 145.352 207.699 144.834C207.67 145.353 207.641 145.871 207.612 146.389Z" fill="black"/>
<path fill-rule="evenodd" clip-rule="evenodd" d="M105.675 156.254C106.259 156.308 106.844 156.361 107.429 156.415C106.844 156.361 106.259 156.307 105.675 156.254Z" fill="black"/>
<path fill-rule="evenodd" clip-rule="evenodd" d="M157.413 201.6C157.036 201.6 156.66 201.6 156.287 201.6C156.665 201.6 157.039 201.6 157.413 201.6Z" fill="black"/>
<path fill-rule="evenodd" clip-rule="evenodd" d="M190.626 74.8502C190.603 75.3349 190.581 75.8192 190.559 76.3014C190.582 75.8164 190.604 75.3332 190.626 74.8502Z" fill="black"/>
<path fill-rule="evenodd" clip-rule="evenodd" d="M198.967 192.402C199.546 191.993 200.109 192.263 200.674 192.441C200.105 192.428 199.536 192.415 198.967 192.402Z" fill="black"/>
<path fill-rule="evenodd" clip-rule="evenodd" d="M131.302 53.7349C130.921 53.7194 130.54 53.7036 130.164 53.6865C130.546 53.7019 130.924 53.7184 131.302 53.7349Z" fill="black"/>
<path fill-rule="evenodd" clip-rule="evenodd" d="M223.571 201.314C223.536 200.832 223.502 200.349 223.467 199.869C223.502 200.352 223.536 200.833 223.571 201.314Z" fill="black"/>
<path fill-rule="evenodd" clip-rule="evenodd" d="M192.406 146.85C192.092 146.852 191.779 146.854 191.469 146.857C191.784 146.855 192.095 146.852 192.406 146.85Z" fill="black"/>
<path fill-rule="evenodd" clip-rule="evenodd" d="M205.639 164.375C205.639 163.973 205.64 163.57 205.64 163.17C205.64 163.573 205.639 163.974 205.639 164.375Z" fill="black"/>
<path fill-rule="evenodd" clip-rule="evenodd" d="M185.567 193.889C186.037 193.828 186.507 193.768 186.976 193.707C186.506 193.768 186.037 193.828 185.567 193.889Z" fill="black"/>
<path fill-rule="evenodd" clip-rule="evenodd" d="M165.255 135.34C165.763 135.337 166.272 135.333 166.781 135.33C166.274 135.628 165.765 135.572 165.255 135.34Z" fill="black"/>
<path fill-rule="evenodd" clip-rule="evenodd" d="M191.618 86.0781C191.324 86.0753 191.03 86.0726 190.74 86.0702C191.035 86.0726 191.326 86.0753 191.618 86.0781Z" fill="black"/>
<path fill-rule="evenodd" clip-rule="evenodd" d="M104.708 160.73C104.404 160.726 104.101 160.722 103.802 160.718C104.107 160.722 104.407 160.726 104.708 160.73Z" fill="black"/>
<path fill-rule="evenodd" clip-rule="evenodd" d="M46.116 140.919C46.6239 140.924 47.1318 140.93 47.6396 140.935C47.1287 141.221 46.6208 141.228 46.116 140.919Z" fill="black"/>
<path fill-rule="evenodd" clip-rule="evenodd" d="M304.169 141.756C304.137 142.142 304.104 142.528 304.073 142.912C304.106 142.525 304.137 142.141 304.169 141.756Z" fill="black"/>
<path fill-rule="evenodd" clip-rule="evenodd" d="M174.867 203.792C174.911 203.371 174.954 202.949 174.998 202.529C174.954 202.951 174.911 203.372 174.867 203.792Z" fill="black"/>
<path fill-rule="evenodd" clip-rule="evenodd" d="M92.7433 153.572C93.2563 153.579 93.7697 153.586 94.2831 153.594C93.7646 153.949 93.2543 153.725 92.7433 153.572Z" fill="black"/>
<path fill-rule="evenodd" clip-rule="evenodd" d="M209.748 79.5753C210.248 79.519 210.747 79.4628 211.246 79.4065C210.747 79.4628 210.248 79.519 209.748 79.5753Z" fill="black"/>
<path fill-rule="evenodd" clip-rule="evenodd" d="M168.035 214.663C168.08 215.105 168.125 215.548 168.17 215.99C168.125 215.546 168.08 215.105 168.035 214.663Z" fill="black"/>
<path fill-rule="evenodd" clip-rule="evenodd" d="M212.483 185.54C212.483 185.127 212.482 184.714 212.481 184.302C212.482 184.716 212.483 185.128 212.483 185.54Z" fill="black"/>
<path fill-rule="evenodd" clip-rule="evenodd" d="M31.4926 216.796C31.9757 216.86 32.4588 216.923 32.9415 216.986C32.4584 216.923 31.9753 216.86 31.4926 216.796Z" fill="black"/>
<path fill-rule="evenodd" clip-rule="evenodd" d="M40.5558 216.991C41.0327 216.603 41.5168 216.722 42.0027 216.97C41.5203 216.977 41.0379 216.984 40.5558 216.991Z" fill="black"/>
<path fill-rule="evenodd" clip-rule="evenodd" d="M127.703 160.082C128.175 160.025 128.647 159.967 129.119 159.909C128.647 159.967 128.175 160.025 127.703 160.082Z" fill="black"/>
<path fill-rule="evenodd" clip-rule="evenodd" d="M180.194 219.178C180.676 219.114 181.157 219.05 181.638 218.986C181.157 219.05 180.676 219.114 180.194 219.178Z" fill="black"/>
<path fill-rule="evenodd" clip-rule="evenodd" d="M163.357 219.923C163.848 219.86 164.339 219.798 164.83 219.735C164.339 219.798 163.848 219.86 163.357 219.923Z" fill="black"/>
<path fill-rule="evenodd" clip-rule="evenodd" d="M190.386 77.7794C190.365 78.1742 190.343 78.5693 190.322 78.9617C190.343 78.5659 190.365 78.1725 190.386 77.7794Z" fill="black"/>
<path fill-rule="evenodd" clip-rule="evenodd" d="M74.7573 171.921C74.8013 171.502 74.8453 171.082 74.8894 170.664C74.845 171.084 74.8013 171.503 74.7573 171.921Z" fill="black"/>
<path fill-rule="evenodd" clip-rule="evenodd" d="M186.595 67.5674C186.608 67.1561 186.621 66.7449 186.635 66.3357C186.622 66.7476 186.609 67.1575 186.595 67.5674Z" fill="black"/>
<path fill-rule="evenodd" clip-rule="evenodd" d="M92.8304 167.259C92.8741 167.678 92.9178 168.098 92.9611 168.516C92.9174 168.096 92.8738 167.677 92.8304 167.259Z" fill="black"/>
<path fill-rule="evenodd" clip-rule="evenodd" d="M94.4569 153.576C94.9548 153.631 95.4527 153.685 95.9503 153.74C95.4524 153.685 94.9545 153.631 94.4569 153.576Z" fill="black"/>
<path fill-rule="evenodd" clip-rule="evenodd" d="M173.72 214.775C174.004 215.604 173.899 217.533 173.094 218.117C171.424 219.33 171.252 217.115 170.92 215.919C170.001 212.6 168.52 208.894 168.142 205.483C168.027 204.436 167.964 202.476 169.354 202.123C170.695 201.783 171.375 203.9 171.837 204.987C173.121 208.004 173.865 211.504 173.72 214.775Z" fill="black"/>
<path fill-rule="evenodd" clip-rule="evenodd" d="M173.72 214.775C173.739 214.346 173.758 213.918 173.777 213.491C173.758 213.92 173.739 214.348 173.72 214.775Z" fill="black"/>
</svg>
