<svg width="467" height="494" viewBox="0 0 467 494" fill="none" xmlns="http://www.w3.org/2000/svg">
<g clip-path="url(#clip0)">
<path d="M327.239 216.312C355.244 216.312 377.947 194.05 377.947 166.588C377.947 139.126 355.244 116.863 327.239 116.863C299.234 116.863 276.532 139.126 276.532 166.588C276.532 194.05 299.234 216.312 327.239 216.312Z" fill="#FFC90A"/>
<path d="M466.333 203.662C466.445 203.642 466.529 203.566 466.659 203.585C466.602 203.37 466.528 203.159 466.437 202.956C466.275 203.171 466.111 203.391 465.966 203.584L466.333 203.662Z" fill="white"/>
<path d="M126.229 284.277C126.526 295.125 128.379 305.879 131.734 316.22C131.811 316.46 131.891 316.697 131.972 316.937H152.515C152.493 316.722 152.471 316.482 152.449 316.22C151.079 300.779 143.182 206.795 152.624 190.723C151.799 192.027 124.637 235.211 126.229 284.277Z" fill="#054918"/>
<path d="M127.771 316.22C127.943 316.46 128.122 316.7 128.304 316.937H143.715C143.598 316.733 143.463 316.493 143.306 316.22C140.76 311.714 133.225 298.243 126.229 284.277C118.712 269.268 111.816 253.69 112.397 248.052C112.218 249.324 107.016 288.088 127.771 316.22Z" fill="#054918"/>
<path d="M287.912 318.804C287.654 328.262 286.039 337.637 283.113 346.653C283.047 346.862 282.976 347.068 282.906 347.277H264.997C265.016 347.09 265.035 346.881 265.054 346.653C266.248 333.19 273.133 251.254 264.901 237.242C265.621 238.379 289.301 276.028 287.912 318.804Z" fill="#054918"/>
<path d="M286.569 346.653C286.419 346.862 286.263 347.071 286.104 347.277H272.668C272.77 347.099 272.888 346.89 273.025 346.653C275.245 342.724 281.814 330.979 287.913 318.804C294.466 305.719 300.479 292.138 299.972 287.223C300.128 288.331 304.663 322.126 286.569 346.653Z" fill="#054918"/>
<path d="M83.1359 40.3606L91.488 33.81C84.9997 33.1081 82.3337 36.5781 81.2427 39.3246C76.1737 37.2606 70.6555 39.9656 70.6555 39.9656L87.3665 45.9147C86.5234 43.7066 85.0559 41.7799 83.1359 40.3606Z" fill="#3F3D56"/>
<path d="M334.693 6.64232L343.046 0.0917382C336.557 -0.610229 333.891 2.85979 332.8 5.60634C327.731 3.54232 322.213 6.24732 322.213 6.24732L338.924 12.1964C338.081 9.9883 336.613 8.06164 334.693 6.64232Z" fill="#3F3D56"/>
<path d="M457.579 265.687C457.579 271.115 457.386 276.498 457 281.837C454.025 323.959 439.132 364.432 413.992 398.711C410.707 403.207 407.257 407.577 403.643 411.821C394.28 422.834 383.883 432.961 372.59 442.069L323.09 413.586L293.494 345.849C293.494 345.849 337.652 258.172 457.5 259.762C457.55 261.73 457.576 263.705 457.579 265.687Z" fill="#3F3D56"/>
<path d="M457 281.837C454.723 313.313 445.817 343.985 430.845 371.917C415.873 399.848 395.16 424.434 370.012 444.121L324.025 417.662L297.779 357.586C297.779 357.586 340.309 273.146 457 281.837Z" fill="#6C63FF"/>
<path d="M413.992 398.711C410.707 403.207 407.257 407.577 403.643 411.821C379.428 440.351 348.487 462.664 313.498 476.828C306.414 479.692 299.162 482.218 291.744 484.405C238.18 498.374 181.434 494.84 130.102 474.341C79.3348 452.122 38.31 412.88 14.3958 363.665C11.1819 357.04 8.29186 350.247 5.72552 343.285C50.4838 311.132 138.679 265.092 234.802 309.83C261.391 322.205 285.133 333.485 306.028 343.671C359.049 369.443 394.337 388.024 413.992 398.711Z" fill="#3F3D56"/>
<path d="M403.643 411.821C378.612 441.239 346.438 464.012 310.082 478.044C273.726 492.076 234.355 496.917 195.591 492.121C156.827 487.325 119.916 473.047 88.253 450.6C56.59 428.153 31.192 398.258 14.3958 363.665C51.7765 334.678 137.993 282.586 232.609 326.617C256.942 337.942 278.665 348.265 297.779 357.586C353.5 384.669 387.824 403.074 403.643 411.821Z" fill="#6C63FF"/>
<path d="M337.667 465.405C329.839 469.66 321.77 473.474 313.498 476.827C285.351 488.202 255.197 494.037 224.753 494C188.729 493.986 153.199 485.783 120.953 470.034C88.7068 454.286 60.6229 431.421 38.9068 403.235C94.5136 397.485 248.221 389.732 337.667 465.405Z" fill="#3F3D56"/>
<path d="M313.498 476.827C269.852 494.426 221.786 498.618 175.658 488.849C129.529 479.08 87.5115 455.81 55.1617 422.116C75.3876 419.203 234.18 399.194 313.498 476.827Z" fill="#6C63FF"/>
<path d="M418.527 139.078V139.085C252.278 18.5486 61.8037 103.389 60.3325 104.04V104.033C81.9218 82.8646 107.557 66.0806 135.771 54.6422C163.985 43.2038 194.223 37.3357 224.753 37.3739C305.578 37.3739 376.783 77.7629 418.527 139.078Z" fill="#E6E6E6"/>
<path d="M73.6667 270.113C101.791 265.141 116.202 215.492 105.856 159.22C95.5098 102.948 64.3236 61.3618 36.1997 66.3342C8.07576 71.3066 -6.33594 120.955 4.01028 177.227C14.3565 233.499 45.5427 275.085 73.6667 270.113Z" fill="#3F3D56"/>
<path d="M80.8943 335.831C79.227 212.23 37.0544 96.2382 36.6288 95.082L32.7828 96.4424C33.2063 97.593 75.1475 212.977 76.8061 335.886L80.8943 335.831Z" fill="#6C63FF"/>
<path d="M6.07204 154.241L4.81372 158.056L55.3026 174.068L56.5609 170.252L6.07204 154.241Z" fill="#6C63FF"/>
<path d="M101.046 149.943L59.4464 182.25L61.9853 185.393L103.585 153.086L101.046 149.943Z" fill="#6C63FF"/>
<path d="M208.897 252.294C239.82 252.294 264.889 202.135 264.889 140.262C264.889 78.389 239.82 28.2308 208.897 28.2308C177.974 28.2308 152.905 78.389 152.905 140.262C152.905 202.135 177.974 252.294 208.897 252.294Z" fill="#3F3D56"/>
<path d="M203.726 323.64C226.152 191.7 203.952 60.2372 203.725 58.9258L199.363 59.6503C199.589 60.9554 221.661 191.728 199.362 322.928L203.726 323.64Z" fill="#6C63FF"/>
<path d="M159.602 116.172L157.514 119.998L208.146 146.556L210.233 142.729L159.602 116.172Z" fill="#6C63FF"/>
<path d="M261.583 129.475L210.957 156.048L213.045 159.873L263.671 133.301L261.583 129.475Z" fill="#6C63FF"/>
<path d="M452.108 216.256C431.565 204.946 410.101 195.323 387.938 187.486C265.391 144.002 143.871 160.761 96.3062 222.994C133.323 146.754 265.405 122.781 398.694 170.076C414.207 175.575 429.389 181.935 444.166 189.125C447.386 197.998 450.038 207.06 452.108 216.256Z" fill="#E6E6E6"/>
<path d="M286.599 93.5718L294.952 87.0212C288.463 86.3193 285.797 89.7893 284.706 92.5359C279.637 90.4718 274.119 93.1768 274.119 93.1768L290.83 99.1259C289.987 96.9178 288.519 94.9911 286.599 93.5718Z" fill="#3F3D56"/>
</g>
<defs>
<clipPath id="clip0">
<rect width="466" height="494" fill="white" transform="translate(0.658997)"/>
</clipPath>
</defs>
</svg>
