<svg width="318" height="48" viewBox="0 0 318 48" fill="none" xmlns="http://www.w3.org/2000/svg">
<path d="M66.2285 26.5859L70.1934 12.0938H75.5527L68.8535 32H63.6035L56.959 12.0938H62.2773L66.2285 26.5859ZM75.5938 24.4668C75.5938 22.9902 75.8809 21.6777 76.4551 20.5293C77.0293 19.3717 77.8542 18.4831 78.9297 17.8633C80.0052 17.2435 81.2676 16.9336 82.7168 16.9336C84.9316 16.9336 86.6771 17.6217 87.9531 18.998C89.2292 20.3652 89.8672 22.2292 89.8672 24.5898V24.7539C89.8672 27.0599 89.2246 28.8919 87.9395 30.25C86.6634 31.599 84.9316 32.2734 82.7441 32.2734C80.6387 32.2734 78.9479 31.6445 77.6719 30.3867C76.3958 29.1198 75.7077 27.4062 75.6074 25.2461L75.5938 24.4668ZM80.2012 24.7539C80.2012 26.1211 80.4154 27.1237 80.8438 27.7617C81.2721 28.3997 81.9056 28.7188 82.7441 28.7188C84.3848 28.7188 85.2233 27.4564 85.2598 24.9316V24.4668C85.2598 21.8145 84.4121 20.4883 82.7168 20.4883C81.1764 20.4883 80.3424 21.6322 80.2148 23.9199L80.2012 24.7539ZM96.7578 32H92.1367V11H96.7578V32ZM104.975 13.5293V17.207H107.408V20.4062H104.975V27.1738C104.975 27.7298 105.075 28.1172 105.275 28.3359C105.476 28.5547 105.872 28.6641 106.465 28.6641C106.921 28.6641 107.303 28.6367 107.613 28.582V31.877C106.784 32.1413 105.918 32.2734 105.016 32.2734C103.43 32.2734 102.258 31.8997 101.502 31.1523C100.745 30.4049 100.367 29.2702 100.367 27.748V20.4062H98.4805V17.207H100.367V13.5293H104.975ZM117.566 32C117.402 31.6992 117.257 31.2572 117.129 30.6738C116.281 31.7402 115.096 32.2734 113.574 32.2734C112.18 32.2734 110.995 31.8542 110.02 31.0156C109.044 30.168 108.557 29.1061 108.557 27.8301C108.557 26.2259 109.149 25.0137 110.334 24.1934C111.519 23.373 113.242 22.9629 115.502 22.9629H116.924V22.1836C116.924 20.8255 116.336 20.1465 115.16 20.1465C114.066 20.1465 113.52 20.6842 113.52 21.7598H108.912C108.912 20.3288 109.518 19.1667 110.73 18.2734C111.952 17.3802 113.506 16.9336 115.393 16.9336C117.279 16.9336 118.77 17.3939 119.863 18.3145C120.957 19.235 121.518 20.4974 121.545 22.1016V28.6504C121.563 30.0085 121.773 31.0475 122.174 31.7676V32H117.566ZM114.682 28.9922C115.256 28.9922 115.73 28.8691 116.104 28.623C116.486 28.377 116.76 28.099 116.924 27.7891V25.4238H115.584C113.98 25.4238 113.178 26.1439 113.178 27.584C113.178 28.0033 113.319 28.3451 113.602 28.6094C113.884 28.8646 114.244 28.9922 114.682 28.9922ZM133.057 21.377L131.539 21.2676C130.09 21.2676 129.16 21.7233 128.75 22.6348V32H124.143V17.207H128.463L128.613 19.1074C129.388 17.6582 130.468 16.9336 131.854 16.9336C132.346 16.9336 132.774 16.9883 133.139 17.0977L133.057 21.377ZM155.424 24.7129C155.424 27.0098 154.904 28.8464 153.865 30.2227C152.835 31.5898 151.441 32.2734 149.682 32.2734C148.324 32.2734 147.207 31.7767 146.332 30.7832V37.6875H141.725V17.207H146.031L146.168 18.5742C147.052 17.4805 148.214 16.9336 149.654 16.9336C151.477 16.9336 152.895 17.6081 153.906 18.957C154.918 20.2969 155.424 22.1426 155.424 24.4941V24.7129ZM150.816 24.4258C150.816 21.8008 150.051 20.4883 148.52 20.4883C147.426 20.4883 146.697 20.8802 146.332 21.6641V27.4883C146.733 28.3086 147.471 28.7188 148.547 28.7188C150.014 28.7188 150.771 27.4518 150.816 24.918V24.4258ZM165.801 32C165.637 31.6992 165.491 31.2572 165.363 30.6738C164.516 31.7402 163.331 32.2734 161.809 32.2734C160.414 32.2734 159.229 31.8542 158.254 31.0156C157.279 30.168 156.791 29.1061 156.791 27.8301C156.791 26.2259 157.383 25.0137 158.568 24.1934C159.753 23.373 161.476 22.9629 163.736 22.9629H165.158V22.1836C165.158 20.8255 164.57 20.1465 163.395 20.1465C162.301 20.1465 161.754 20.6842 161.754 21.7598H157.146C157.146 20.3288 157.753 19.1667 158.965 18.2734C160.186 17.3802 161.74 16.9336 163.627 16.9336C165.514 16.9336 167.004 17.3939 168.098 18.3145C169.191 19.235 169.752 20.4974 169.779 22.1016V28.6504C169.798 30.0085 170.007 31.0475 170.408 31.7676V32H165.801ZM162.916 28.9922C163.49 28.9922 163.964 28.8691 164.338 28.623C164.721 28.377 164.994 28.099 165.158 27.7891V25.4238H163.818C162.214 25.4238 161.412 26.1439 161.412 27.584C161.412 28.0033 161.553 28.3451 161.836 28.6094C162.118 28.8646 162.479 28.9922 162.916 28.9922ZM181.291 21.377L179.773 21.2676C178.324 21.2676 177.395 21.7233 176.984 22.6348V32H172.377V17.207H176.697L176.848 19.1074C177.622 17.6582 178.702 16.9336 180.088 16.9336C180.58 16.9336 181.008 16.9883 181.373 17.0977L181.291 21.377ZM190.875 32C190.711 31.6992 190.565 31.2572 190.438 30.6738C189.59 31.7402 188.405 32.2734 186.883 32.2734C185.488 32.2734 184.303 31.8542 183.328 31.0156C182.353 30.168 181.865 29.1061 181.865 27.8301C181.865 26.2259 182.458 25.0137 183.643 24.1934C184.827 23.373 186.55 22.9629 188.811 22.9629H190.232V22.1836C190.232 20.8255 189.645 20.1465 188.469 20.1465C187.375 20.1465 186.828 20.6842 186.828 21.7598H182.221C182.221 20.3288 182.827 19.1667 184.039 18.2734C185.26 17.3802 186.814 16.9336 188.701 16.9336C190.588 16.9336 192.078 17.3939 193.172 18.3145C194.266 19.235 194.826 20.4974 194.854 22.1016V28.6504C194.872 30.0085 195.081 31.0475 195.482 31.7676V32H190.875ZM187.99 28.9922C188.564 28.9922 189.038 28.8691 189.412 28.623C189.795 28.377 190.068 28.099 190.232 27.7891V25.4238H188.893C187.288 25.4238 186.486 26.1439 186.486 27.584C186.486 28.0033 186.628 28.3451 186.91 28.6094C187.193 28.8646 187.553 28.9922 187.99 28.9922ZM221.24 32H216.469V23.6875H209.4V32H204.602V12.0938H209.4V19.9961H216.469V12.0938H221.24V32ZM223.496 24.4668C223.496 22.9902 223.783 21.6777 224.357 20.5293C224.932 19.3717 225.757 18.4831 226.832 17.8633C227.908 17.2435 229.17 16.9336 230.619 16.9336C232.834 16.9336 234.579 17.6217 235.855 18.998C237.132 20.3652 237.77 22.2292 237.77 24.5898V24.7539C237.77 27.0599 237.127 28.8919 235.842 30.25C234.566 31.599 232.834 32.2734 230.646 32.2734C228.541 32.2734 226.85 31.6445 225.574 30.3867C224.298 29.1198 223.61 27.4062 223.51 25.2461L223.496 24.4668ZM228.104 24.7539C228.104 26.1211 228.318 27.1237 228.746 27.7617C229.174 28.3997 229.808 28.7188 230.646 28.7188C232.287 28.7188 233.126 27.4564 233.162 24.9316V24.4668C233.162 21.8145 232.314 20.4883 230.619 20.4883C229.079 20.4883 228.245 21.6322 228.117 23.9199L228.104 24.7539ZM244.154 17.207L244.305 18.9434C245.353 17.6035 246.761 16.9336 248.529 16.9336C250.398 16.9336 251.66 17.6764 252.316 19.1621C253.319 17.6764 254.768 16.9336 256.664 16.9336C259.663 16.9336 261.203 18.7474 261.285 22.375V32H256.664V22.6621C256.664 21.9056 256.536 21.3542 256.281 21.0078C256.026 20.6615 255.561 20.4883 254.887 20.4883C253.975 20.4883 253.296 20.8939 252.85 21.7051L252.863 21.8965V32H248.242V22.6895C248.242 21.9147 248.119 21.3542 247.873 21.0078C247.627 20.6615 247.158 20.4883 246.465 20.4883C245.581 20.4883 244.906 20.8939 244.441 21.7051V32H239.834V17.207H244.154ZM271.074 32.2734C268.805 32.2734 266.968 31.599 265.564 30.25C264.161 28.8919 263.459 27.1283 263.459 24.959V24.5762C263.459 23.0632 263.737 21.7279 264.293 20.5703C264.858 19.4128 265.678 18.5195 266.754 17.8906C267.829 17.2526 269.105 16.9336 270.582 16.9336C272.66 16.9336 274.301 17.5807 275.504 18.875C276.707 20.1602 277.309 21.9557 277.309 24.2617V26.0527H268.148C268.312 26.8822 268.673 27.5339 269.229 28.0078C269.785 28.4818 270.505 28.7188 271.389 28.7188C272.847 28.7188 273.986 28.2083 274.807 27.1875L276.912 29.6758C276.338 30.4688 275.522 31.1022 274.465 31.5762C273.417 32.041 272.286 32.2734 271.074 32.2734ZM270.555 20.4883C269.206 20.4883 268.404 21.3815 268.148 23.168H272.797V22.8125C272.815 22.0742 272.628 21.5046 272.236 21.1035C271.844 20.6934 271.284 20.4883 270.555 20.4883Z" fill="#322153"/>
<path d="M37 20.6529H7.69176L18.3272 4.35414L15.486 0L0 23.7322L15.486 47.4644L18.3272 43.1103L7.69176 26.8115H37V20.6529Z" fill="#322153"/>
</svg>
